<mxfile host="app.diagrams.net" agent="Mozilla/5.0 (Windows NT 10.0; Win64; x64) AppleWebKit/537.36 (KHTML, like Gecko) Chrome/137.0.0.0 Safari/537.36" version="27.1.4" pages="5">
  <diagram id="2OB4xSOtDGcMZNXGpzO5" name="Anwendungsfälle">
    <mxGraphModel dx="1296" dy="706" grid="1" gridSize="10" guides="1" tooltips="1" connect="1" arrows="1" fold="1" page="1" pageScale="1" pageWidth="827" pageHeight="1169" math="0" shadow="0">
      <root>
        <mxCell id="0" />
        <mxCell id="1" parent="0" />
        <mxCell id="te8vT17yGwpjdRVILMmu-46" value="" style="rounded=0;whiteSpace=wrap;html=1;fillColor=#b1ddf0;strokeColor=#10739e;strokeWidth=3;" vertex="1" parent="1">
          <mxGeometry x="20" y="30" width="190" height="680" as="geometry" />
        </mxCell>
        <mxCell id="te8vT17yGwpjdRVILMmu-45" value="" style="rounded=0;whiteSpace=wrap;html=1;strokeWidth=3;fillColor=#bac8d3;strokeColor=#23445d;" vertex="1" parent="1">
          <mxGeometry x="210" y="30" width="560" height="680" as="geometry" />
        </mxCell>
        <mxCell id="te8vT17yGwpjdRVILMmu-23" style="edgeStyle=orthogonalEdgeStyle;rounded=0;orthogonalLoop=1;jettySize=auto;html=1;entryX=0;entryY=0.5;entryDx=0;entryDy=0;endArrow=none;startFill=0;fillColor=#1ba1e2;strokeColor=#006EAF;" edge="1" parent="1" source="te8vT17yGwpjdRVILMmu-3" target="te8vT17yGwpjdRVILMmu-9">
          <mxGeometry relative="1" as="geometry" />
        </mxCell>
        <mxCell id="te8vT17yGwpjdRVILMmu-24" style="edgeStyle=orthogonalEdgeStyle;rounded=0;orthogonalLoop=1;jettySize=auto;html=1;endArrow=none;startFill=0;fillColor=#1ba1e2;strokeColor=#006EAF;" edge="1" parent="1" source="te8vT17yGwpjdRVILMmu-3" target="te8vT17yGwpjdRVILMmu-11">
          <mxGeometry relative="1" as="geometry" />
        </mxCell>
        <mxCell id="te8vT17yGwpjdRVILMmu-3" value="&lt;font style=&quot;color: light-dark(rgb(0, 0, 0), rgb(255, 255, 255));&quot;&gt;Benutzer&lt;/font&gt;" style="shape=umlActor;verticalLabelPosition=bottom;verticalAlign=top;html=1;outlineConnect=0;fillColor=#1ba1e2;strokeColor=#006EAF;fontColor=#ffffff;" vertex="1" parent="1">
          <mxGeometry x="160" y="70" width="30" height="60" as="geometry" />
        </mxCell>
        <mxCell id="te8vT17yGwpjdRVILMmu-39" style="edgeStyle=orthogonalEdgeStyle;rounded=0;orthogonalLoop=1;jettySize=auto;html=1;endArrow=none;startFill=0;fillColor=#6a00ff;strokeColor=#3700CC;" edge="1" parent="1" source="te8vT17yGwpjdRVILMmu-4" target="te8vT17yGwpjdRVILMmu-22">
          <mxGeometry relative="1" as="geometry" />
        </mxCell>
        <mxCell id="te8vT17yGwpjdRVILMmu-4" value="&lt;font style=&quot;color: light-dark(rgb(0, 0, 0), rgb(255, 255, 255));&quot;&gt;Teilnehmer&lt;/font&gt;" style="shape=umlActor;verticalLabelPosition=bottom;verticalAlign=top;html=1;outlineConnect=0;fillColor=#6a00ff;fontColor=#ffffff;strokeColor=#3700CC;" vertex="1" parent="1">
          <mxGeometry x="40" y="600" width="30" height="60" as="geometry" />
        </mxCell>
        <mxCell id="te8vT17yGwpjdRVILMmu-28" style="edgeStyle=orthogonalEdgeStyle;rounded=0;orthogonalLoop=1;jettySize=auto;html=1;entryX=0;entryY=0.5;entryDx=0;entryDy=0;endArrow=none;startFill=0;fillColor=#008a00;strokeColor=#005700;" edge="1" parent="1" source="te8vT17yGwpjdRVILMmu-5" target="te8vT17yGwpjdRVILMmu-12">
          <mxGeometry relative="1" as="geometry" />
        </mxCell>
        <mxCell id="te8vT17yGwpjdRVILMmu-29" style="edgeStyle=orthogonalEdgeStyle;rounded=0;orthogonalLoop=1;jettySize=auto;html=1;endArrow=none;startFill=0;fillColor=#008a00;strokeColor=#005700;" edge="1" parent="1" source="te8vT17yGwpjdRVILMmu-5" target="te8vT17yGwpjdRVILMmu-16">
          <mxGeometry relative="1" as="geometry">
            <Array as="points">
              <mxPoint x="230" y="280" />
              <mxPoint x="230" y="290" />
            </Array>
          </mxGeometry>
        </mxCell>
        <mxCell id="te8vT17yGwpjdRVILMmu-30" style="edgeStyle=orthogonalEdgeStyle;rounded=0;orthogonalLoop=1;jettySize=auto;html=1;entryX=0;entryY=0.5;entryDx=0;entryDy=0;endArrow=none;startFill=0;fillColor=#008a00;strokeColor=#005700;" edge="1" parent="1" source="te8vT17yGwpjdRVILMmu-5" target="te8vT17yGwpjdRVILMmu-17">
          <mxGeometry relative="1" as="geometry" />
        </mxCell>
        <mxCell id="te8vT17yGwpjdRVILMmu-5" value="&lt;font style=&quot;color: light-dark(rgb(0, 0, 0), rgb(255, 255, 255));&quot;&gt;Admin&lt;/font&gt;" style="shape=umlActor;verticalLabelPosition=bottom;verticalAlign=top;html=1;outlineConnect=0;fillColor=#008a00;fontColor=#ffffff;strokeColor=#005700;" vertex="1" parent="1">
          <mxGeometry x="130" y="250" width="30" height="60" as="geometry" />
        </mxCell>
        <mxCell id="te8vT17yGwpjdRVILMmu-33" style="edgeStyle=orthogonalEdgeStyle;rounded=0;orthogonalLoop=1;jettySize=auto;html=1;entryX=0;entryY=0.5;entryDx=0;entryDy=0;endArrow=none;startFill=0;fillColor=#a20025;strokeColor=#6F0000;" edge="1" parent="1" source="te8vT17yGwpjdRVILMmu-6" target="te8vT17yGwpjdRVILMmu-18">
          <mxGeometry relative="1" as="geometry" />
        </mxCell>
        <mxCell id="te8vT17yGwpjdRVILMmu-34" style="edgeStyle=orthogonalEdgeStyle;rounded=0;orthogonalLoop=1;jettySize=auto;html=1;entryX=0;entryY=0.5;entryDx=0;entryDy=0;endArrow=none;startFill=0;fillColor=#a20025;strokeColor=#6F0000;" edge="1" parent="1" source="te8vT17yGwpjdRVILMmu-6" target="te8vT17yGwpjdRVILMmu-20">
          <mxGeometry relative="1" as="geometry" />
        </mxCell>
        <mxCell id="te8vT17yGwpjdRVILMmu-6" value="&lt;font style=&quot;color: light-dark(rgb(0, 0, 0), rgb(255, 255, 255));&quot;&gt;Tainer&lt;/font&gt;" style="shape=umlActor;verticalLabelPosition=bottom;verticalAlign=top;html=1;outlineConnect=0;fillColor=#a20025;fontColor=#ffffff;strokeColor=#6F0000;" vertex="1" parent="1">
          <mxGeometry x="80" y="440" width="30" height="60" as="geometry" />
        </mxCell>
        <mxCell id="te8vT17yGwpjdRVILMmu-9" value="Kurse anschauen" style="ellipse;whiteSpace=wrap;html=1;fillColor=#1ba1e2;fontColor=#ffffff;strokeColor=#006EAF;" vertex="1" parent="1">
          <mxGeometry x="280" y="50" width="130" height="40" as="geometry" />
        </mxCell>
        <mxCell id="te8vT17yGwpjdRVILMmu-25" style="edgeStyle=orthogonalEdgeStyle;rounded=0;orthogonalLoop=1;jettySize=auto;html=1;entryX=1;entryY=0.5;entryDx=0;entryDy=0;endArrow=open;startFill=0;dashed=1;dashPattern=8 8;endFill=0;endSize=14;fillColor=#1ba1e2;strokeColor=#006EAF;" edge="1" parent="1" source="te8vT17yGwpjdRVILMmu-10" target="te8vT17yGwpjdRVILMmu-11">
          <mxGeometry relative="1" as="geometry" />
        </mxCell>
        <mxCell id="te8vT17yGwpjdRVILMmu-10" value="Profilinfos bearbeiten" style="ellipse;whiteSpace=wrap;html=1;fillColor=#1ba1e2;fontColor=#ffffff;strokeColor=#006EAF;" vertex="1" parent="1">
          <mxGeometry x="550" y="112.5" width="140" height="45" as="geometry" />
        </mxCell>
        <mxCell id="te8vT17yGwpjdRVILMmu-11" value="Eigenes Profil erstellen und verwalten" style="ellipse;whiteSpace=wrap;html=1;fillColor=#1ba1e2;fontColor=#ffffff;strokeColor=#006EAF;" vertex="1" parent="1">
          <mxGeometry x="240" y="110" width="230" height="50" as="geometry" />
        </mxCell>
        <mxCell id="te8vT17yGwpjdRVILMmu-12" value="Profile verwalten" style="ellipse;whiteSpace=wrap;html=1;fillColor=#008a00;fontColor=#ffffff;strokeColor=#005700;" vertex="1" parent="1">
          <mxGeometry x="290" y="200" width="110" height="50" as="geometry" />
        </mxCell>
        <mxCell id="te8vT17yGwpjdRVILMmu-31" style="edgeStyle=orthogonalEdgeStyle;rounded=0;orthogonalLoop=1;jettySize=auto;html=1;endArrow=none;startFill=0;fillColor=#008a00;strokeColor=#005700;dashed=1;dashPattern=8 8;" edge="1" parent="1" source="te8vT17yGwpjdRVILMmu-13">
          <mxGeometry relative="1" as="geometry">
            <mxPoint x="410" y="225" as="targetPoint" />
          </mxGeometry>
        </mxCell>
        <mxCell id="te8vT17yGwpjdRVILMmu-13" value="Rollen änden" style="ellipse;whiteSpace=wrap;html=1;fillColor=#008a00;fontColor=#ffffff;strokeColor=#005700;" vertex="1" parent="1">
          <mxGeometry x="550" y="205" width="140" height="40" as="geometry" />
        </mxCell>
        <mxCell id="te8vT17yGwpjdRVILMmu-32" style="edgeStyle=orthogonalEdgeStyle;rounded=0;orthogonalLoop=1;jettySize=auto;html=1;entryX=1;entryY=0.5;entryDx=0;entryDy=0;endArrow=open;startFill=0;fillColor=#008a00;strokeColor=#005700;dashed=1;dashPattern=8 8;endFill=0;endSize=14;" edge="1" parent="1" source="te8vT17yGwpjdRVILMmu-15" target="te8vT17yGwpjdRVILMmu-12">
          <mxGeometry relative="1" as="geometry" />
        </mxCell>
        <mxCell id="te8vT17yGwpjdRVILMmu-15" value="Trainerstatus ändern" style="ellipse;whiteSpace=wrap;html=1;fillColor=#008a00;fontColor=#ffffff;strokeColor=#005700;" vertex="1" parent="1">
          <mxGeometry x="560" y="260" width="120" height="40" as="geometry" />
        </mxCell>
        <mxCell id="te8vT17yGwpjdRVILMmu-16" value="Firmendaten verrwalten" style="ellipse;whiteSpace=wrap;html=1;fillColor=#008a00;fontColor=#ffffff;strokeColor=#005700;" vertex="1" parent="1">
          <mxGeometry x="275" y="260" width="140" height="60" as="geometry" />
        </mxCell>
        <mxCell id="te8vT17yGwpjdRVILMmu-17" value="Locations &amp;amp; Equipment vewalten" style="ellipse;whiteSpace=wrap;html=1;fillColor=#008a00;fontColor=#ffffff;strokeColor=#005700;" vertex="1" parent="1">
          <mxGeometry x="260" y="330" width="166" height="50" as="geometry" />
        </mxCell>
        <mxCell id="te8vT17yGwpjdRVILMmu-18" value="Kurse erstellen" style="ellipse;whiteSpace=wrap;html=1;fillColor=#a20025;fontColor=#ffffff;strokeColor=#6F0000;" vertex="1" parent="1">
          <mxGeometry x="280" y="430" width="110" height="50" as="geometry" />
        </mxCell>
        <mxCell id="te8vT17yGwpjdRVILMmu-37" style="edgeStyle=orthogonalEdgeStyle;rounded=0;orthogonalLoop=1;jettySize=auto;html=1;entryX=1;entryY=0.5;entryDx=0;entryDy=0;endArrow=none;startFill=0;dashed=1;dashPattern=8 8;fillColor=#a20025;strokeColor=#6F0000;" edge="1" parent="1" source="te8vT17yGwpjdRVILMmu-19" target="te8vT17yGwpjdRVILMmu-18">
          <mxGeometry relative="1" as="geometry" />
        </mxCell>
        <mxCell id="te8vT17yGwpjdRVILMmu-19" value="&lt;b&gt;Voraussetzung&lt;/b&gt;: Status ist &#39;Aktiv&#39;" style="whiteSpace=wrap;html=1;shape=mxgraph.basic.document;fillColor=#a20025;fontColor=#ffffff;strokeColor=#6F0000;" vertex="1" parent="1">
          <mxGeometry x="540" y="440" width="210" height="30" as="geometry" />
        </mxCell>
        <mxCell id="te8vT17yGwpjdRVILMmu-20" value="Eigene Kurse vewalten" style="ellipse;whiteSpace=wrap;html=1;fillColor=#a20025;fontColor=#ffffff;strokeColor=#6F0000;" vertex="1" parent="1">
          <mxGeometry x="266.5" y="490" width="137" height="50" as="geometry" />
        </mxCell>
        <mxCell id="te8vT17yGwpjdRVILMmu-38" style="edgeStyle=orthogonalEdgeStyle;rounded=0;orthogonalLoop=1;jettySize=auto;html=1;entryX=1;entryY=0.5;entryDx=0;entryDy=0;endArrow=open;endFill=0;dashed=1;dashPattern=8 8;endSize=14;fillColor=#a20025;strokeColor=#6F0000;" edge="1" parent="1" source="te8vT17yGwpjdRVILMmu-21" target="te8vT17yGwpjdRVILMmu-20">
          <mxGeometry relative="1" as="geometry" />
        </mxCell>
        <mxCell id="te8vT17yGwpjdRVILMmu-21" value="Registrierungen verwalten" style="ellipse;whiteSpace=wrap;html=1;fillColor=#a20025;fontColor=#ffffff;strokeColor=#6F0000;" vertex="1" parent="1">
          <mxGeometry x="550" y="495" width="180" height="40" as="geometry" />
        </mxCell>
        <mxCell id="te8vT17yGwpjdRVILMmu-22" value="Kursregistrierung durchführen oder abbrechen" style="ellipse;whiteSpace=wrap;html=1;fillColor=#6a00ff;fontColor=#ffffff;strokeColor=#3700CC;" vertex="1" parent="1">
          <mxGeometry x="227.5" y="590" width="215" height="80" as="geometry" />
        </mxCell>
        <mxCell id="te8vT17yGwpjdRVILMmu-27" value="&amp;lt;&amp;lt;extend&amp;gt;&amp;gt;" style="text;html=1;align=center;verticalAlign=middle;resizable=0;points=[];autosize=1;strokeColor=none;fillColor=none;" vertex="1" parent="1">
          <mxGeometry x="470" y="110" width="90" height="30" as="geometry" />
        </mxCell>
        <mxCell id="te8vT17yGwpjdRVILMmu-35" value="&amp;lt;&amp;lt;extend&amp;gt;&amp;gt;" style="text;html=1;align=center;verticalAlign=middle;resizable=0;points=[];autosize=1;strokeColor=none;fillColor=none;" vertex="1" parent="1">
          <mxGeometry x="470" y="200" width="90" height="30" as="geometry" />
        </mxCell>
        <mxCell id="te8vT17yGwpjdRVILMmu-36" value="&amp;lt;&amp;lt;extend&amp;gt;&amp;gt;" style="text;html=1;align=center;verticalAlign=middle;resizable=0;points=[];autosize=1;strokeColor=none;fillColor=none;" vertex="1" parent="1">
          <mxGeometry x="470" y="280" width="90" height="30" as="geometry" />
        </mxCell>
        <mxCell id="te8vT17yGwpjdRVILMmu-42" style="edgeStyle=orthogonalEdgeStyle;rounded=0;orthogonalLoop=1;jettySize=auto;html=1;entryX=0.5;entryY=0;entryDx=0;entryDy=0;entryPerimeter=0;endArrow=none;startFill=1;startArrow=block;endSize=6;startSize=14;fillColor=#ffe6cc;strokeColor=#d79b00;" edge="1" parent="1" source="te8vT17yGwpjdRVILMmu-3" target="te8vT17yGwpjdRVILMmu-4">
          <mxGeometry relative="1" as="geometry" />
        </mxCell>
        <mxCell id="te8vT17yGwpjdRVILMmu-43" style="edgeStyle=orthogonalEdgeStyle;rounded=0;orthogonalLoop=1;jettySize=auto;html=1;entryX=0.5;entryY=0;entryDx=0;entryDy=0;entryPerimeter=0;endArrow=none;startFill=0;fillColor=#ffe6cc;strokeColor=#d79b00;" edge="1" parent="1" source="te8vT17yGwpjdRVILMmu-3" target="te8vT17yGwpjdRVILMmu-6">
          <mxGeometry relative="1" as="geometry" />
        </mxCell>
        <mxCell id="te8vT17yGwpjdRVILMmu-44" style="edgeStyle=orthogonalEdgeStyle;rounded=0;orthogonalLoop=1;jettySize=auto;html=1;entryX=0.5;entryY=0;entryDx=0;entryDy=0;entryPerimeter=0;endArrow=none;startFill=0;fillColor=#ffe6cc;strokeColor=#d79b00;" edge="1" parent="1" source="te8vT17yGwpjdRVILMmu-3" target="te8vT17yGwpjdRVILMmu-5">
          <mxGeometry relative="1" as="geometry">
            <Array as="points">
              <mxPoint x="145" y="100" />
            </Array>
          </mxGeometry>
        </mxCell>
      </root>
    </mxGraphModel>
  </diagram>
  <diagram id="jMpn9PlBQztAXx965oXg" name="Prozesse">
    <mxGraphModel dx="1188" dy="648" grid="1" gridSize="10" guides="1" tooltips="1" connect="1" arrows="1" fold="1" page="1" pageScale="1" pageWidth="827" pageHeight="1169" math="0" shadow="0">
      <root>
        <mxCell id="0" />
        <mxCell id="1" parent="0" />
        <mxCell id="NJW-KbKQsQ6cPksnJnQO-69" value="" style="rounded=0;whiteSpace=wrap;html=1;fillColor=#bac8d3;strokeColor=#23445d;" vertex="1" parent="1">
          <mxGeometry y="508" width="830" height="622" as="geometry" />
        </mxCell>
        <mxCell id="jm-dK3n9ffw3jFbuA79r-28" value="" style="rounded=0;whiteSpace=wrap;html=1;fillColor=#bac8d3;strokeColor=#23445d;" vertex="1" parent="1">
          <mxGeometry width="780" height="490" as="geometry" />
        </mxCell>
        <mxCell id="McDVEOp9xNYQvgrbs5U6-6" value="" style="edgeStyle=orthogonalEdgeStyle;rounded=0;orthogonalLoop=1;jettySize=auto;html=1;fillColor=#008a00;strokeColor=#005700;" edge="1" parent="1" source="McDVEOp9xNYQvgrbs5U6-1" target="McDVEOp9xNYQvgrbs5U6-2">
          <mxGeometry relative="1" as="geometry">
            <Array as="points">
              <mxPoint x="70" y="70" />
              <mxPoint x="70" y="70" />
            </Array>
          </mxGeometry>
        </mxCell>
        <mxCell id="McDVEOp9xNYQvgrbs5U6-1" value="&lt;font style=&quot;color: light-dark(rgb(0, 0, 0), rgb(255, 255, 255));&quot;&gt;Admin&lt;/font&gt;" style="shape=umlActor;verticalLabelPosition=bottom;verticalAlign=top;html=1;outlineConnect=0;fillColor=#008a00;fontColor=#ffffff;strokeColor=#005700;" vertex="1" parent="1">
          <mxGeometry x="20" y="40" width="30" height="60" as="geometry" />
        </mxCell>
        <mxCell id="McDVEOp9xNYQvgrbs5U6-7" value="" style="edgeStyle=orthogonalEdgeStyle;rounded=0;orthogonalLoop=1;jettySize=auto;html=1;fillColor=#008a00;strokeColor=#005700;" edge="1" parent="1" source="McDVEOp9xNYQvgrbs5U6-2" target="McDVEOp9xNYQvgrbs5U6-3">
          <mxGeometry relative="1" as="geometry" />
        </mxCell>
        <mxCell id="McDVEOp9xNYQvgrbs5U6-2" value="Anmeldung in Keycloak" style="rounded=0;whiteSpace=wrap;html=1;fillColor=#eeeeee;strokeColor=#36393d;" vertex="1" parent="1">
          <mxGeometry x="120" y="50" width="90" height="40" as="geometry" />
        </mxCell>
        <mxCell id="McDVEOp9xNYQvgrbs5U6-8" value="" style="edgeStyle=orthogonalEdgeStyle;rounded=0;orthogonalLoop=1;jettySize=auto;html=1;fillColor=#008a00;strokeColor=#005700;" edge="1" parent="1" source="McDVEOp9xNYQvgrbs5U6-3" target="McDVEOp9xNYQvgrbs5U6-5">
          <mxGeometry relative="1" as="geometry" />
        </mxCell>
        <mxCell id="McDVEOp9xNYQvgrbs5U6-3" value="Konfiguation der Clients" style="rounded=0;whiteSpace=wrap;html=1;fillColor=#eeeeee;strokeColor=#36393d;" vertex="1" parent="1">
          <mxGeometry x="240" y="50" width="90" height="40" as="geometry" />
        </mxCell>
        <mxCell id="McDVEOp9xNYQvgrbs5U6-11" value="" style="edgeStyle=orthogonalEdgeStyle;rounded=0;orthogonalLoop=1;jettySize=auto;html=1;fillColor=#008a00;strokeColor=#005700;" edge="1" parent="1" source="McDVEOp9xNYQvgrbs5U6-4" target="McDVEOp9xNYQvgrbs5U6-10">
          <mxGeometry relative="1" as="geometry" />
        </mxCell>
        <mxCell id="McDVEOp9xNYQvgrbs5U6-4" value="Enichtung der Identity Povider" style="rounded=0;whiteSpace=wrap;html=1;fillColor=#eeeeee;strokeColor=#36393d;" vertex="1" parent="1">
          <mxGeometry x="480" y="50" width="90" height="40" as="geometry" />
        </mxCell>
        <mxCell id="McDVEOp9xNYQvgrbs5U6-9" value="" style="edgeStyle=orthogonalEdgeStyle;rounded=0;orthogonalLoop=1;jettySize=auto;html=1;fillColor=#008a00;strokeColor=#005700;" edge="1" parent="1" source="McDVEOp9xNYQvgrbs5U6-5" target="McDVEOp9xNYQvgrbs5U6-4">
          <mxGeometry relative="1" as="geometry" />
        </mxCell>
        <mxCell id="McDVEOp9xNYQvgrbs5U6-5" value="Erstellung der Rollen" style="rounded=0;whiteSpace=wrap;html=1;fillColor=#eeeeee;strokeColor=#36393d;" vertex="1" parent="1">
          <mxGeometry x="360" y="50" width="90" height="40" as="geometry" />
        </mxCell>
        <mxCell id="McDVEOp9xNYQvgrbs5U6-14" style="edgeStyle=orthogonalEdgeStyle;rounded=0;orthogonalLoop=1;jettySize=auto;html=1;fillColor=#008a00;strokeColor=#005700;" edge="1" parent="1" source="McDVEOp9xNYQvgrbs5U6-10" target="McDVEOp9xNYQvgrbs5U6-12">
          <mxGeometry relative="1" as="geometry">
            <Array as="points">
              <mxPoint x="655" y="110" />
              <mxPoint x="200" y="110" />
            </Array>
          </mxGeometry>
        </mxCell>
        <mxCell id="McDVEOp9xNYQvgrbs5U6-10" value="Registrerung und Anmedung in Skillhub als Admin" style="rounded=0;whiteSpace=wrap;html=1;fillColor=#eeeeee;strokeColor=#36393d;" vertex="1" parent="1">
          <mxGeometry x="600" y="40" width="110" height="60" as="geometry" />
        </mxCell>
        <mxCell id="McDVEOp9xNYQvgrbs5U6-16" value="" style="edgeStyle=orthogonalEdgeStyle;rounded=0;orthogonalLoop=1;jettySize=auto;html=1;fillColor=#008a00;strokeColor=#005700;" edge="1" parent="1" source="McDVEOp9xNYQvgrbs5U6-12" target="McDVEOp9xNYQvgrbs5U6-15">
          <mxGeometry relative="1" as="geometry" />
        </mxCell>
        <mxCell id="jm-dK3n9ffw3jFbuA79r-3" value="" style="edgeStyle=orthogonalEdgeStyle;rounded=0;orthogonalLoop=1;jettySize=auto;html=1;fillColor=#008a00;strokeColor=#005700;" edge="1" parent="1" source="McDVEOp9xNYQvgrbs5U6-12" target="jm-dK3n9ffw3jFbuA79r-2">
          <mxGeometry relative="1" as="geometry" />
        </mxCell>
        <mxCell id="McDVEOp9xNYQvgrbs5U6-12" value="Eintragen der Unternehmensinformationen&lt;div&gt;und Geschäftszeiten&lt;/div&gt;" style="rounded=0;whiteSpace=wrap;html=1;fillColor=#eeeeee;strokeColor=#36393d;" vertex="1" parent="1">
          <mxGeometry x="120" y="130" width="160" height="50" as="geometry" />
        </mxCell>
        <mxCell id="McDVEOp9xNYQvgrbs5U6-18" style="edgeStyle=orthogonalEdgeStyle;rounded=0;orthogonalLoop=1;jettySize=auto;html=1;entryX=0;entryY=0.5;entryDx=0;entryDy=0;fillColor=#008a00;strokeColor=#005700;" edge="1" parent="1" source="McDVEOp9xNYQvgrbs5U6-15" target="McDVEOp9xNYQvgrbs5U6-17">
          <mxGeometry relative="1" as="geometry" />
        </mxCell>
        <mxCell id="jm-dK3n9ffw3jFbuA79r-9" value="" style="edgeStyle=orthogonalEdgeStyle;rounded=0;orthogonalLoop=1;jettySize=auto;html=1;fillColor=#008a00;strokeColor=#005700;" edge="1" parent="1" source="McDVEOp9xNYQvgrbs5U6-15" target="jm-dK3n9ffw3jFbuA79r-8">
          <mxGeometry relative="1" as="geometry" />
        </mxCell>
        <mxCell id="McDVEOp9xNYQvgrbs5U6-15" value="Erfassung von Locations und Equipment" style="rounded=0;whiteSpace=wrap;html=1;fillColor=#eeeeee;strokeColor=#36393d;" vertex="1" parent="1">
          <mxGeometry x="318" y="127.5" width="96" height="55" as="geometry" />
        </mxCell>
        <mxCell id="jm-dK3n9ffw3jFbuA79r-23" value="" style="edgeStyle=orthogonalEdgeStyle;rounded=0;orthogonalLoop=1;jettySize=auto;html=1;fillColor=#008a00;strokeColor=#005700;" edge="1" parent="1" source="McDVEOp9xNYQvgrbs5U6-17" target="jm-dK3n9ffw3jFbuA79r-22">
          <mxGeometry relative="1" as="geometry" />
        </mxCell>
        <mxCell id="McDVEOp9xNYQvgrbs5U6-17" value="Aktivieren von Locations für Kurserstellung" style="rounded=0;whiteSpace=wrap;html=1;fillColor=#eeeeee;strokeColor=#36393d;" vertex="1" parent="1">
          <mxGeometry x="460" y="125" width="110" height="60" as="geometry" />
        </mxCell>
        <mxCell id="jm-dK3n9ffw3jFbuA79r-5" value="" style="edgeStyle=orthogonalEdgeStyle;rounded=0;orthogonalLoop=1;jettySize=auto;html=1;fillColor=#008a00;strokeColor=#005700;" edge="1" parent="1" source="jm-dK3n9ffw3jFbuA79r-2" target="jm-dK3n9ffw3jFbuA79r-4">
          <mxGeometry relative="1" as="geometry" />
        </mxCell>
        <mxCell id="jm-dK3n9ffw3jFbuA79r-2" value="Infos vorhanden ?" style="rhombus;whiteSpace=wrap;html=1;fillColor=#eeeeee;strokeColor=#36393d;" vertex="1" parent="1">
          <mxGeometry x="130" y="220" width="140" height="60" as="geometry" />
        </mxCell>
        <mxCell id="jm-dK3n9ffw3jFbuA79r-6" style="edgeStyle=orthogonalEdgeStyle;rounded=0;orthogonalLoop=1;jettySize=auto;html=1;entryX=0;entryY=0.5;entryDx=0;entryDy=0;fillColor=#008a00;strokeColor=#005700;" edge="1" parent="1" source="jm-dK3n9ffw3jFbuA79r-4" target="McDVEOp9xNYQvgrbs5U6-12">
          <mxGeometry relative="1" as="geometry">
            <Array as="points">
              <mxPoint x="100" y="335" />
              <mxPoint x="100" y="155" />
            </Array>
          </mxGeometry>
        </mxCell>
        <mxCell id="jm-dK3n9ffw3jFbuA79r-4" value="Zeige SnackBar Benachrichtigung mit Hinweisen" style="rounded=0;whiteSpace=wrap;html=1;fillColor=#eeeeee;strokeColor=#36393d;" vertex="1" parent="1">
          <mxGeometry x="120" y="310" width="160" height="50" as="geometry" />
        </mxCell>
        <mxCell id="jm-dK3n9ffw3jFbuA79r-7" value="&lt;b&gt;Administrierung&lt;/b&gt;" style="text;html=1;align=center;verticalAlign=middle;whiteSpace=wrap;rounded=0;fillColor=#008a00;fontColor=#ffffff;strokeColor=#005700;" vertex="1" parent="1">
          <mxGeometry x="50" y="10" width="110" height="30" as="geometry" />
        </mxCell>
        <mxCell id="jm-dK3n9ffw3jFbuA79r-12" value="" style="edgeStyle=orthogonalEdgeStyle;rounded=0;orthogonalLoop=1;jettySize=auto;html=1;fillColor=#008a00;strokeColor=#005700;" edge="1" parent="1" source="jm-dK3n9ffw3jFbuA79r-8" target="jm-dK3n9ffw3jFbuA79r-10">
          <mxGeometry relative="1" as="geometry" />
        </mxCell>
        <mxCell id="jm-dK3n9ffw3jFbuA79r-8" value="Name und Kapazität erfassen" style="rounded=0;whiteSpace=wrap;html=1;fillColor=#eeeeee;strokeColor=#36393d;" vertex="1" parent="1">
          <mxGeometry x="304" y="225" width="124" height="50" as="geometry" />
        </mxCell>
        <mxCell id="jm-dK3n9ffw3jFbuA79r-14" value="" style="edgeStyle=orthogonalEdgeStyle;rounded=0;orthogonalLoop=1;jettySize=auto;html=1;fillColor=#008a00;strokeColor=#005700;" edge="1" parent="1" source="jm-dK3n9ffw3jFbuA79r-10" target="jm-dK3n9ffw3jFbuA79r-13">
          <mxGeometry relative="1" as="geometry" />
        </mxCell>
        <mxCell id="jm-dK3n9ffw3jFbuA79r-19" style="edgeStyle=orthogonalEdgeStyle;rounded=0;orthogonalLoop=1;jettySize=auto;html=1;entryX=0.5;entryY=1;entryDx=0;entryDy=0;fillColor=#008a00;strokeColor=#005700;" edge="1" parent="1" source="jm-dK3n9ffw3jFbuA79r-10" target="McDVEOp9xNYQvgrbs5U6-17">
          <mxGeometry relative="1" as="geometry" />
        </mxCell>
        <mxCell id="jm-dK3n9ffw3jFbuA79r-10" value="Equipment erfassen?" style="rhombus;whiteSpace=wrap;html=1;fillColor=#eeeeee;strokeColor=#36393d;" vertex="1" parent="1">
          <mxGeometry x="296" y="305" width="140" height="65" as="geometry" />
        </mxCell>
        <mxCell id="jm-dK3n9ffw3jFbuA79r-11" value="false" style="text;html=1;align=center;verticalAlign=middle;resizable=0;points=[];autosize=1;strokeColor=none;fillColor=none;" vertex="1" parent="1">
          <mxGeometry x="160" y="275" width="50" height="30" as="geometry" />
        </mxCell>
        <mxCell id="jm-dK3n9ffw3jFbuA79r-15" style="edgeStyle=orthogonalEdgeStyle;rounded=0;orthogonalLoop=1;jettySize=auto;html=1;entryX=0;entryY=0.5;entryDx=0;entryDy=0;fillColor=#008a00;strokeColor=#005700;" edge="1" parent="1" source="jm-dK3n9ffw3jFbuA79r-13" target="jm-dK3n9ffw3jFbuA79r-10">
          <mxGeometry relative="1" as="geometry">
            <Array as="points">
              <mxPoint x="290" y="440" />
              <mxPoint x="290" y="338" />
            </Array>
          </mxGeometry>
        </mxCell>
        <mxCell id="jm-dK3n9ffw3jFbuA79r-13" value="Equipment Dialog ausfüllen" style="whiteSpace=wrap;html=1;fillColor=#eeeeee;strokeColor=#36393d;" vertex="1" parent="1">
          <mxGeometry x="309" y="410" width="114" height="40" as="geometry" />
        </mxCell>
        <mxCell id="jm-dK3n9ffw3jFbuA79r-18" value="true" style="text;html=1;align=center;verticalAlign=middle;resizable=0;points=[];autosize=1;strokeColor=none;fillColor=none;" vertex="1" parent="1">
          <mxGeometry x="360" y="368" width="40" height="30" as="geometry" />
        </mxCell>
        <mxCell id="jm-dK3n9ffw3jFbuA79r-20" value="false" style="text;html=1;align=center;verticalAlign=middle;resizable=0;points=[];autosize=1;strokeColor=none;fillColor=none;" vertex="1" parent="1">
          <mxGeometry x="425" y="308" width="50" height="30" as="geometry" />
        </mxCell>
        <mxCell id="jm-dK3n9ffw3jFbuA79r-25" value="" style="edgeStyle=orthogonalEdgeStyle;rounded=0;orthogonalLoop=1;jettySize=auto;html=1;fillColor=#008a00;strokeColor=#005700;" edge="1" parent="1" source="jm-dK3n9ffw3jFbuA79r-22" target="jm-dK3n9ffw3jFbuA79r-24">
          <mxGeometry relative="1" as="geometry" />
        </mxCell>
        <mxCell id="jm-dK3n9ffw3jFbuA79r-22" value="Adminstrierung der User" style="whiteSpace=wrap;html=1;fillColor=#eeeeee;strokeColor=#36393d;rounded=0;" vertex="1" parent="1">
          <mxGeometry x="620" y="127.5" width="115" height="55" as="geometry" />
        </mxCell>
        <mxCell id="jm-dK3n9ffw3jFbuA79r-27" value="" style="edgeStyle=orthogonalEdgeStyle;rounded=0;orthogonalLoop=1;jettySize=auto;html=1;fillColor=#008a00;strokeColor=#005700;" edge="1" parent="1" source="jm-dK3n9ffw3jFbuA79r-24" target="jm-dK3n9ffw3jFbuA79r-26">
          <mxGeometry relative="1" as="geometry" />
        </mxCell>
        <mxCell id="jm-dK3n9ffw3jFbuA79r-24" value="Rollenvergabe in Keycloak" style="whiteSpace=wrap;html=1;fillColor=#eeeeee;strokeColor=#36393d;rounded=0;" vertex="1" parent="1">
          <mxGeometry x="617.5" y="220" width="120" height="60" as="geometry" />
        </mxCell>
        <mxCell id="jm-dK3n9ffw3jFbuA79r-26" value="Setze Status für Trainer in Skillhub" style="whiteSpace=wrap;html=1;fillColor=#eeeeee;strokeColor=#36393d;rounded=0;" vertex="1" parent="1">
          <mxGeometry x="617.5" y="310" width="120" height="60" as="geometry" />
        </mxCell>
        <mxCell id="NJW-KbKQsQ6cPksnJnQO-5" value="" style="edgeStyle=orthogonalEdgeStyle;rounded=0;orthogonalLoop=1;jettySize=auto;html=1;fillColor=#a20025;strokeColor=#6F0000;" edge="1" parent="1" source="NJW-KbKQsQ6cPksnJnQO-1" target="NJW-KbKQsQ6cPksnJnQO-3">
          <mxGeometry relative="1" as="geometry" />
        </mxCell>
        <mxCell id="NJW-KbKQsQ6cPksnJnQO-1" value="&lt;font style=&quot;color: light-dark(rgb(0, 0, 0), rgb(255, 255, 255));&quot;&gt;Tainer&lt;/font&gt;" style="shape=umlActor;verticalLabelPosition=bottom;verticalAlign=top;html=1;outlineConnect=0;fillColor=#a20025;fontColor=#ffffff;strokeColor=#6F0000;" vertex="1" parent="1">
          <mxGeometry x="10" y="560" width="30" height="60" as="geometry" />
        </mxCell>
        <mxCell id="NJW-KbKQsQ6cPksnJnQO-2" value="&lt;b&gt;Kursverwaltung&lt;/b&gt;" style="text;html=1;align=center;verticalAlign=middle;whiteSpace=wrap;rounded=0;fillColor=#a20025;strokeColor=#6F0000;fontColor=#ffffff;" vertex="1" parent="1">
          <mxGeometry x="40" y="520" width="110" height="30" as="geometry" />
        </mxCell>
        <mxCell id="NJW-KbKQsQ6cPksnJnQO-9" value="" style="edgeStyle=orthogonalEdgeStyle;rounded=0;orthogonalLoop=1;jettySize=auto;html=1;fillColor=#a20025;strokeColor=#6F0000;" edge="1" parent="1" source="NJW-KbKQsQ6cPksnJnQO-3" target="NJW-KbKQsQ6cPksnJnQO-8">
          <mxGeometry relative="1" as="geometry" />
        </mxCell>
        <mxCell id="NJW-KbKQsQ6cPksnJnQO-3" value="Anmeldung in Skillhub" style="rounded=0;whiteSpace=wrap;html=1;fillColor=#eeeeee;strokeColor=#36393d;" vertex="1" parent="1">
          <mxGeometry x="90" y="570" width="90" height="40" as="geometry" />
        </mxCell>
        <mxCell id="NJW-KbKQsQ6cPksnJnQO-11" value="" style="edgeStyle=orthogonalEdgeStyle;rounded=0;orthogonalLoop=1;jettySize=auto;html=1;fillColor=#a20025;strokeColor=#6F0000;" edge="1" parent="1" source="NJW-KbKQsQ6cPksnJnQO-8" target="NJW-KbKQsQ6cPksnJnQO-10">
          <mxGeometry relative="1" as="geometry" />
        </mxCell>
        <mxCell id="NJW-KbKQsQ6cPksnJnQO-14" value="false" style="edgeLabel;html=1;align=center;verticalAlign=middle;resizable=0;points=[];" vertex="1" connectable="0" parent="NJW-KbKQsQ6cPksnJnQO-11">
          <mxGeometry x="-0.5346" y="4" relative="1" as="geometry">
            <mxPoint x="1" y="2" as="offset" />
          </mxGeometry>
        </mxCell>
        <mxCell id="NJW-KbKQsQ6cPksnJnQO-13" value="" style="edgeStyle=orthogonalEdgeStyle;rounded=0;orthogonalLoop=1;jettySize=auto;html=1;fillColor=#a20025;strokeColor=#6F0000;" edge="1" parent="1" source="NJW-KbKQsQ6cPksnJnQO-8" target="NJW-KbKQsQ6cPksnJnQO-12">
          <mxGeometry relative="1" as="geometry" />
        </mxCell>
        <mxCell id="NJW-KbKQsQ6cPksnJnQO-15" value="true" style="edgeLabel;html=1;align=center;verticalAlign=middle;resizable=0;points=[];" vertex="1" connectable="0" parent="NJW-KbKQsQ6cPksnJnQO-13">
          <mxGeometry x="-0.7259" y="3" relative="1" as="geometry">
            <mxPoint y="-2" as="offset" />
          </mxGeometry>
        </mxCell>
        <mxCell id="NJW-KbKQsQ6cPksnJnQO-8" value="Status = Aktiv" style="rhombus;whiteSpace=wrap;html=1;fillColor=#eeeeee;strokeColor=#36393d;rounded=0;" vertex="1" parent="1">
          <mxGeometry x="220" y="560" width="105" height="60" as="geometry" />
        </mxCell>
        <mxCell id="NJW-KbKQsQ6cPksnJnQO-10" value="Zeige SnackBar Benachrichtigung" style="whiteSpace=wrap;html=1;fillColor=#eeeeee;strokeColor=#36393d;rounded=0;" vertex="1" parent="1">
          <mxGeometry x="213.75" y="650" width="117.5" height="40" as="geometry" />
        </mxCell>
        <mxCell id="NJW-KbKQsQ6cPksnJnQO-17" value="" style="edgeStyle=orthogonalEdgeStyle;rounded=0;orthogonalLoop=1;jettySize=auto;html=1;fillColor=#a20025;strokeColor=#6F0000;" edge="1" parent="1" source="NJW-KbKQsQ6cPksnJnQO-12" target="NJW-KbKQsQ6cPksnJnQO-16">
          <mxGeometry relative="1" as="geometry" />
        </mxCell>
        <mxCell id="NJW-KbKQsQ6cPksnJnQO-12" value="Öffne Kurs-Editor" style="whiteSpace=wrap;html=1;fillColor=#eeeeee;strokeColor=#36393d;rounded=0;" vertex="1" parent="1">
          <mxGeometry x="360" y="570" width="100" height="40" as="geometry" />
        </mxCell>
        <mxCell id="NJW-KbKQsQ6cPksnJnQO-19" value="" style="edgeStyle=orthogonalEdgeStyle;rounded=0;orthogonalLoop=1;jettySize=auto;html=1;" edge="1" parent="1" source="NJW-KbKQsQ6cPksnJnQO-16" target="NJW-KbKQsQ6cPksnJnQO-18">
          <mxGeometry relative="1" as="geometry" />
        </mxCell>
        <mxCell id="NJW-KbKQsQ6cPksnJnQO-16" value="Trage Titel, Beschreibung, gewünschte Kapazität, Zeitraum und Dauer ein" style="whiteSpace=wrap;html=1;fillColor=#eeeeee;strokeColor=#36393d;rounded=0;" vertex="1" parent="1">
          <mxGeometry x="500" y="560" width="150" height="60" as="geometry" />
        </mxCell>
        <mxCell id="NJW-KbKQsQ6cPksnJnQO-21" value="" style="edgeStyle=orthogonalEdgeStyle;rounded=0;orthogonalLoop=1;jettySize=auto;html=1;fillColor=#a20025;strokeColor=#6F0000;" edge="1" parent="1" source="NJW-KbKQsQ6cPksnJnQO-18" target="NJW-KbKQsQ6cPksnJnQO-20">
          <mxGeometry relative="1" as="geometry" />
        </mxCell>
        <mxCell id="NJW-KbKQsQ6cPksnJnQO-68" value="" style="edgeStyle=orthogonalEdgeStyle;rounded=0;orthogonalLoop=1;jettySize=auto;html=1;fillColor=#a20025;strokeColor=#6F0000;" edge="1" parent="1" source="NJW-KbKQsQ6cPksnJnQO-18" target="NJW-KbKQsQ6cPksnJnQO-16">
          <mxGeometry relative="1" as="geometry" />
        </mxCell>
        <mxCell id="NJW-KbKQsQ6cPksnJnQO-18" value="Filter Locations" style="whiteSpace=wrap;html=1;fillColor=#eeeeee;strokeColor=#36393d;rounded=0;" vertex="1" parent="1">
          <mxGeometry x="690" y="565" width="100" height="50" as="geometry" />
        </mxCell>
        <mxCell id="NJW-KbKQsQ6cPksnJnQO-23" value="" style="edgeStyle=orthogonalEdgeStyle;rounded=0;orthogonalLoop=1;jettySize=auto;html=1;fillColor=#a20025;strokeColor=#6F0000;" edge="1" parent="1" source="NJW-KbKQsQ6cPksnJnQO-20" target="NJW-KbKQsQ6cPksnJnQO-22">
          <mxGeometry relative="1" as="geometry" />
        </mxCell>
        <mxCell id="NJW-KbKQsQ6cPksnJnQO-20" value="Level 1 Filter:&lt;div&gt;Hole nur aktive Locations mit ausreichender Kapazität&amp;nbsp;&lt;/div&gt;" style="whiteSpace=wrap;html=1;fillColor=#eeeeee;strokeColor=#36393d;rounded=0;" vertex="1" parent="1">
          <mxGeometry x="680" y="650" width="120" height="80" as="geometry" />
        </mxCell>
        <mxCell id="NJW-KbKQsQ6cPksnJnQO-25" value="" style="edgeStyle=orthogonalEdgeStyle;rounded=0;orthogonalLoop=1;jettySize=auto;html=1;fillColor=#a20025;strokeColor=#6F0000;" edge="1" parent="1" source="NJW-KbKQsQ6cPksnJnQO-22" target="NJW-KbKQsQ6cPksnJnQO-24">
          <mxGeometry relative="1" as="geometry" />
        </mxCell>
        <mxCell id="NJW-KbKQsQ6cPksnJnQO-22" value="Level 2 Filter:&lt;div&gt;Erstelle verfügbare Zeitslots entsprechend der Geschäftszeiten pro Tag&lt;/div&gt;" style="whiteSpace=wrap;html=1;fillColor=#eeeeee;strokeColor=#36393d;rounded=0;" vertex="1" parent="1">
          <mxGeometry x="500" y="690" width="140" height="70" as="geometry" />
        </mxCell>
        <mxCell id="NJW-KbKQsQ6cPksnJnQO-27" value="" style="edgeStyle=orthogonalEdgeStyle;rounded=0;orthogonalLoop=1;jettySize=auto;html=1;fillColor=#a20025;strokeColor=#6F0000;" edge="1" parent="1" source="NJW-KbKQsQ6cPksnJnQO-24" target="NJW-KbKQsQ6cPksnJnQO-26">
          <mxGeometry relative="1" as="geometry" />
        </mxCell>
        <mxCell id="NJW-KbKQsQ6cPksnJnQO-24" value="Level 3 Filter:&lt;div&gt;Überprüfe ob es verfügbare Zeitslots für eine Location gibt&lt;/div&gt;" style="whiteSpace=wrap;html=1;fillColor=#eeeeee;strokeColor=#36393d;rounded=0;" vertex="1" parent="1">
          <mxGeometry x="308" y="730" width="120" height="60" as="geometry" />
        </mxCell>
        <mxCell id="NJW-KbKQsQ6cPksnJnQO-26" value="Gibt es Kurse, die an dem Tag&amp;nbsp;&lt;div&gt;und&amp;nbsp;&lt;span style=&quot;background-color: transparent; color: light-dark(rgb(0, 0, 0), rgb(255, 255, 255));&quot;&gt;in der Location während des&amp;nbsp;&lt;/span&gt;&lt;div&gt;Zeitraums stattfinden?&lt;/div&gt;&lt;/div&gt;" style="rhombus;whiteSpace=wrap;html=1;fillColor=#eeeeee;strokeColor=#36393d;rounded=0;" vertex="1" parent="1">
          <mxGeometry x="40" y="705" width="230" height="110" as="geometry" />
        </mxCell>
        <mxCell id="NJW-KbKQsQ6cPksnJnQO-33" value="" style="edgeStyle=orthogonalEdgeStyle;rounded=0;orthogonalLoop=1;jettySize=auto;html=1;fillColor=#a20025;strokeColor=#6F0000;" edge="1" parent="1" source="NJW-KbKQsQ6cPksnJnQO-28" target="NJW-KbKQsQ6cPksnJnQO-32">
          <mxGeometry relative="1" as="geometry" />
        </mxCell>
        <mxCell id="NJW-KbKQsQ6cPksnJnQO-28" value="Entferne die betroffenen Zeitslots" style="whiteSpace=wrap;html=1;fillColor=#eeeeee;strokeColor=#36393d;rounded=0;" vertex="1" parent="1">
          <mxGeometry x="70" y="850" width="120" height="40" as="geometry" />
        </mxCell>
        <mxCell id="NJW-KbKQsQ6cPksnJnQO-30" style="edgeStyle=orthogonalEdgeStyle;rounded=0;orthogonalLoop=1;jettySize=auto;html=1;entryX=-0.004;entryY=0.631;entryDx=0;entryDy=0;entryPerimeter=0;exitX=0;exitY=0.5;exitDx=0;exitDy=0;fillColor=#a20025;strokeColor=#6F0000;" edge="1" parent="1" source="NJW-KbKQsQ6cPksnJnQO-26" target="NJW-KbKQsQ6cPksnJnQO-28">
          <mxGeometry relative="1" as="geometry" />
        </mxCell>
        <mxCell id="NJW-KbKQsQ6cPksnJnQO-31" value="true" style="text;html=1;align=center;verticalAlign=middle;resizable=0;points=[];autosize=1;strokeColor=none;fillColor=none;" vertex="1" parent="1">
          <mxGeometry x="15" y="770" width="40" height="30" as="geometry" />
        </mxCell>
        <mxCell id="NJW-KbKQsQ6cPksnJnQO-38" value="" style="edgeStyle=orthogonalEdgeStyle;rounded=0;orthogonalLoop=1;jettySize=auto;html=1;fillColor=#a20025;strokeColor=#6F0000;" edge="1" parent="1" source="NJW-KbKQsQ6cPksnJnQO-32" target="NJW-KbKQsQ6cPksnJnQO-37">
          <mxGeometry relative="1" as="geometry" />
        </mxCell>
        <mxCell id="NJW-KbKQsQ6cPksnJnQO-32" value="Filter Level 4:&lt;div&gt;Erzeuge Zeitfenster basierend auf den verfügbaren Zeitslots und benötigter Dauer für den Kurs&lt;/div&gt;" style="whiteSpace=wrap;html=1;fillColor=#eeeeee;strokeColor=#36393d;rounded=0;" vertex="1" parent="1">
          <mxGeometry x="270" y="825" width="150" height="90" as="geometry" />
        </mxCell>
        <mxCell id="NJW-KbKQsQ6cPksnJnQO-34" style="edgeStyle=orthogonalEdgeStyle;rounded=0;orthogonalLoop=1;jettySize=auto;html=1;entryX=0.002;entryY=0.161;entryDx=0;entryDy=0;entryPerimeter=0;fillColor=#a20025;strokeColor=#6F0000;" edge="1" parent="1" source="NJW-KbKQsQ6cPksnJnQO-26" target="NJW-KbKQsQ6cPksnJnQO-32">
          <mxGeometry relative="1" as="geometry" />
        </mxCell>
        <mxCell id="NJW-KbKQsQ6cPksnJnQO-35" value="false" style="text;html=1;align=center;verticalAlign=middle;resizable=0;points=[];autosize=1;strokeColor=none;fillColor=none;" vertex="1" parent="1">
          <mxGeometry x="155" y="808" width="50" height="30" as="geometry" />
        </mxCell>
        <mxCell id="NJW-KbKQsQ6cPksnJnQO-40" value="" style="edgeStyle=orthogonalEdgeStyle;rounded=0;orthogonalLoop=1;jettySize=auto;html=1;fillColor=#a20025;strokeColor=#6F0000;" edge="1" parent="1" source="NJW-KbKQsQ6cPksnJnQO-37" target="NJW-KbKQsQ6cPksnJnQO-39">
          <mxGeometry relative="1" as="geometry" />
        </mxCell>
        <mxCell id="NJW-KbKQsQ6cPksnJnQO-37" value="Addiere 30 Minuten auf einen Zeitslot" style="whiteSpace=wrap;html=1;fillColor=#eeeeee;strokeColor=#36393d;rounded=0;" vertex="1" parent="1">
          <mxGeometry x="475" y="840" width="120" height="60" as="geometry" />
        </mxCell>
        <mxCell id="NJW-KbKQsQ6cPksnJnQO-45" value="" style="edgeStyle=orthogonalEdgeStyle;rounded=0;orthogonalLoop=1;jettySize=auto;html=1;exitX=1;exitY=0.5;exitDx=0;exitDy=0;fillColor=#a20025;strokeColor=#6F0000;" edge="1" parent="1" source="NJW-KbKQsQ6cPksnJnQO-39" target="NJW-KbKQsQ6cPksnJnQO-44">
          <mxGeometry relative="1" as="geometry" />
        </mxCell>
        <mxCell id="NJW-KbKQsQ6cPksnJnQO-57" style="edgeStyle=orthogonalEdgeStyle;rounded=0;orthogonalLoop=1;jettySize=auto;html=1;entryX=0.5;entryY=0;entryDx=0;entryDy=0;exitX=0;exitY=1;exitDx=0;exitDy=0;fillColor=#a20025;strokeColor=#6F0000;" edge="1" parent="1" source="NJW-KbKQsQ6cPksnJnQO-39" target="NJW-KbKQsQ6cPksnJnQO-48">
          <mxGeometry relative="1" as="geometry">
            <Array as="points">
              <mxPoint x="630" y="896" />
              <mxPoint x="630" y="960" />
              <mxPoint x="555" y="960" />
            </Array>
          </mxGeometry>
        </mxCell>
        <mxCell id="NJW-KbKQsQ6cPksnJnQO-39" value="Kursdauer erreicht?" style="rhombus;whiteSpace=wrap;html=1;fillColor=#eeeeee;strokeColor=#36393d;rounded=0;" vertex="1" parent="1">
          <mxGeometry x="660" y="817.5" width="105" height="105" as="geometry" />
        </mxCell>
        <mxCell id="NJW-KbKQsQ6cPksnJnQO-60" style="edgeStyle=orthogonalEdgeStyle;rounded=0;orthogonalLoop=1;jettySize=auto;html=1;entryX=0.5;entryY=0;entryDx=0;entryDy=0;fillColor=#a20025;strokeColor=#6F0000;" edge="1" parent="1" source="NJW-KbKQsQ6cPksnJnQO-44" target="NJW-KbKQsQ6cPksnJnQO-37">
          <mxGeometry relative="1" as="geometry">
            <Array as="points">
              <mxPoint x="820" y="1005" />
              <mxPoint x="820" y="820" />
              <mxPoint x="535" y="820" />
            </Array>
          </mxGeometry>
        </mxCell>
        <mxCell id="NJW-KbKQsQ6cPksnJnQO-64" value="" style="edgeStyle=orthogonalEdgeStyle;rounded=0;orthogonalLoop=1;jettySize=auto;html=1;fillColor=#a20025;strokeColor=#6F0000;" edge="1" parent="1" source="NJW-KbKQsQ6cPksnJnQO-44" target="NJW-KbKQsQ6cPksnJnQO-63">
          <mxGeometry relative="1" as="geometry" />
        </mxCell>
        <mxCell id="NJW-KbKQsQ6cPksnJnQO-44" value="Ist der nächste Slot unter den gefilterten Slots?" style="rhombus;whiteSpace=wrap;html=1;fillColor=#eeeeee;strokeColor=#36393d;rounded=0;" vertex="1" parent="1">
          <mxGeometry x="637.5" y="960" width="150" height="90" as="geometry" />
        </mxCell>
        <mxCell id="NJW-KbKQsQ6cPksnJnQO-50" value="" style="edgeStyle=orthogonalEdgeStyle;rounded=0;orthogonalLoop=1;jettySize=auto;html=1;fillColor=#a20025;strokeColor=#6F0000;" edge="1" parent="1" source="NJW-KbKQsQ6cPksnJnQO-48" target="NJW-KbKQsQ6cPksnJnQO-49">
          <mxGeometry relative="1" as="geometry" />
        </mxCell>
        <mxCell id="NJW-KbKQsQ6cPksnJnQO-48" value="Erstelle Zeitfenster" style="whiteSpace=wrap;html=1;fillColor=#eeeeee;strokeColor=#36393d;rounded=0;" vertex="1" parent="1">
          <mxGeometry x="515" y="985" width="80" height="40" as="geometry" />
        </mxCell>
        <mxCell id="NJW-KbKQsQ6cPksnJnQO-52" value="" style="edgeStyle=orthogonalEdgeStyle;rounded=0;orthogonalLoop=1;jettySize=auto;html=1;fillColor=#a20025;strokeColor=#6F0000;" edge="1" parent="1" source="NJW-KbKQsQ6cPksnJnQO-49" target="NJW-KbKQsQ6cPksnJnQO-51">
          <mxGeometry relative="1" as="geometry" />
        </mxCell>
        <mxCell id="NJW-KbKQsQ6cPksnJnQO-49" value="Trainer bekommt pro Tag verfügbare Locations und Zeitfenster angezeigt&amp;nbsp;" style="whiteSpace=wrap;html=1;fillColor=#eeeeee;strokeColor=#36393d;rounded=0;" vertex="1" parent="1">
          <mxGeometry x="335" y="975" width="120" height="60" as="geometry" />
        </mxCell>
        <mxCell id="NJW-KbKQsQ6cPksnJnQO-55" style="edgeStyle=orthogonalEdgeStyle;rounded=0;orthogonalLoop=1;jettySize=auto;html=1;entryX=0.5;entryY=0;entryDx=0;entryDy=0;exitX=0;exitY=0.5;exitDx=0;exitDy=0;fillColor=#a20025;strokeColor=#6F0000;" edge="1" parent="1" source="NJW-KbKQsQ6cPksnJnQO-51" target="NJW-KbKQsQ6cPksnJnQO-53">
          <mxGeometry relative="1" as="geometry" />
        </mxCell>
        <mxCell id="NJW-KbKQsQ6cPksnJnQO-51" value="Buchung der Termine" style="whiteSpace=wrap;html=1;fillColor=#eeeeee;strokeColor=#36393d;rounded=0;" vertex="1" parent="1">
          <mxGeometry x="184" y="990" width="120" height="30" as="geometry" />
        </mxCell>
        <mxCell id="NJW-KbKQsQ6cPksnJnQO-67" value="" style="edgeStyle=orthogonalEdgeStyle;rounded=0;orthogonalLoop=1;jettySize=auto;html=1;fillColor=#a20025;strokeColor=#6F0000;" edge="1" parent="1" source="NJW-KbKQsQ6cPksnJnQO-53" target="NJW-KbKQsQ6cPksnJnQO-66">
          <mxGeometry relative="1" as="geometry" />
        </mxCell>
        <mxCell id="NJW-KbKQsQ6cPksnJnQO-53" value="Bilder Hochladen" style="whiteSpace=wrap;html=1;fillColor=#eeeeee;strokeColor=#36393d;rounded=0;" vertex="1" parent="1">
          <mxGeometry x="35" y="1025" width="120" height="25" as="geometry" />
        </mxCell>
        <mxCell id="NJW-KbKQsQ6cPksnJnQO-58" value="true" style="text;html=1;align=center;verticalAlign=middle;resizable=0;points=[];autosize=1;strokeColor=none;fillColor=none;" vertex="1" parent="1">
          <mxGeometry x="630" y="898" width="40" height="30" as="geometry" />
        </mxCell>
        <mxCell id="NJW-KbKQsQ6cPksnJnQO-59" value="false" style="text;html=1;align=center;verticalAlign=middle;resizable=0;points=[];autosize=1;strokeColor=none;fillColor=none;" vertex="1" parent="1">
          <mxGeometry x="755" y="848" width="50" height="30" as="geometry" />
        </mxCell>
        <mxCell id="NJW-KbKQsQ6cPksnJnQO-61" value="true" style="text;html=1;align=center;verticalAlign=middle;resizable=0;points=[];autosize=1;strokeColor=none;fillColor=none;" vertex="1" parent="1">
          <mxGeometry x="780" y="968" width="40" height="30" as="geometry" />
        </mxCell>
        <mxCell id="NJW-KbKQsQ6cPksnJnQO-63" value="Entferne Zeitslot" style="whiteSpace=wrap;html=1;fillColor=#eeeeee;strokeColor=#36393d;rounded=0;" vertex="1" parent="1">
          <mxGeometry x="652.5" y="1080" width="120" height="20" as="geometry" />
        </mxCell>
        <mxCell id="NJW-KbKQsQ6cPksnJnQO-66" value="Kurs erstellen" style="whiteSpace=wrap;html=1;fillColor=#eeeeee;strokeColor=#36393d;rounded=0;" vertex="1" parent="1">
          <mxGeometry x="35" y="1080" width="120" height="15" as="geometry" />
        </mxCell>
      </root>
    </mxGraphModel>
  </diagram>
  <diagram id="H3gnsvkkXD4a0RsQVtxr" name="UML-Klassendiagramm">
    <mxGraphModel dx="2185" dy="1909" grid="1" gridSize="10" guides="1" tooltips="1" connect="1" arrows="1" fold="1" page="1" pageScale="1" pageWidth="827" pageHeight="1169" math="0" shadow="0">
      <root>
        <mxCell id="0" />
        <mxCell id="1" parent="0" />
        <mxCell id="5ih0zI0dsJdmYs3tvsHG-42" value="" style="rounded=0;whiteSpace=wrap;html=1;fillColor=#eeeeee;strokeColor=#36393d;" vertex="1" parent="1">
          <mxGeometry x="-20" y="-9" width="1030" height="760" as="geometry" />
        </mxCell>
        <mxCell id="bpglXUeIrytFklf1UbjX-1" value="Unternehmen" style="swimlane;fontStyle=0;align=center;verticalAlign=top;childLayout=stackLayout;horizontal=1;startSize=30;horizontalStack=0;resizeParent=1;resizeParentMax=0;resizeLast=0;collapsible=0;marginBottom=0;html=1;whiteSpace=wrap;fillColor=#dae8fc;strokeColor=#6c8ebf;" parent="1" vertex="1">
          <mxGeometry y="510" width="180" height="208" as="geometry" />
        </mxCell>
        <mxCell id="bpglXUeIrytFklf1UbjX-3" value="- id : UUID" style="text;html=1;strokeColor=none;fillColor=none;align=left;verticalAlign=middle;spacingLeft=4;spacingRight=4;overflow=hidden;rotatable=0;points=[[0,0.5],[1,0.5]];portConstraint=eastwest;whiteSpace=wrap;" parent="bpglXUeIrytFklf1UbjX-1" vertex="1">
          <mxGeometry y="30" width="180" height="20" as="geometry" />
        </mxCell>
        <mxCell id="bpglXUeIrytFklf1UbjX-5" value="- name : String" style="text;html=1;strokeColor=none;fillColor=none;align=left;verticalAlign=middle;spacingLeft=4;spacingRight=4;overflow=hidden;rotatable=0;points=[[0,0.5],[1,0.5]];portConstraint=eastwest;whiteSpace=wrap;" parent="bpglXUeIrytFklf1UbjX-1" vertex="1">
          <mxGeometry y="50" width="180" height="20" as="geometry" />
        </mxCell>
        <mxCell id="bpglXUeIrytFklf1UbjX-9" value="- adresse : AdresseT" style="text;html=1;strokeColor=none;fillColor=none;align=left;verticalAlign=middle;spacingLeft=4;spacingRight=4;overflow=hidden;rotatable=0;points=[[0,0.5],[1,0.5]];portConstraint=eastwest;whiteSpace=wrap;" parent="bpglXUeIrytFklf1UbjX-1" vertex="1">
          <mxGeometry y="70" width="180" height="20" as="geometry" />
        </mxCell>
        <mxCell id="bpglXUeIrytFklf1UbjX-10" value="- kontakt_email : String" style="text;html=1;strokeColor=none;fillColor=none;align=left;verticalAlign=middle;spacingLeft=4;spacingRight=4;overflow=hidden;rotatable=0;points=[[0,0.5],[1,0.5]];portConstraint=eastwest;whiteSpace=wrap;" parent="bpglXUeIrytFklf1UbjX-1" vertex="1">
          <mxGeometry y="90" width="180" height="20" as="geometry" />
        </mxCell>
        <mxCell id="alJDZY-AKsbJDuTatwF_-35" value="- kontakt_tel: String" style="text;html=1;strokeColor=none;fillColor=none;align=left;verticalAlign=middle;spacingLeft=4;spacingRight=4;overflow=hidden;rotatable=0;points=[[0,0.5],[1,0.5]];portConstraint=eastwest;whiteSpace=wrap;" parent="bpglXUeIrytFklf1UbjX-1" vertex="1">
          <mxGeometry y="110" width="180" height="20" as="geometry" />
        </mxCell>
        <mxCell id="bpglXUeIrytFklf1UbjX-11" value="- registrierungsdatum: Datetime" style="text;html=1;strokeColor=none;fillColor=none;align=left;verticalAlign=middle;spacingLeft=4;spacingRight=4;overflow=hidden;rotatable=0;points=[[0,0.5],[1,0.5]];portConstraint=eastwest;whiteSpace=wrap;" parent="bpglXUeIrytFklf1UbjX-1" vertex="1">
          <mxGeometry y="130" width="180" height="20" as="geometry" />
        </mxCell>
        <mxCell id="R34qqxg1m0l4ado87kVO-33" value="- öfnnungszeiten: List&amp;lt;ÖffnungszeitT&amp;gt;" style="text;html=1;strokeColor=none;fillColor=none;align=left;verticalAlign=middle;spacingLeft=4;spacingRight=4;overflow=hidden;rotatable=0;points=[[0,0.5],[1,0.5]];portConstraint=eastwest;whiteSpace=wrap;" parent="bpglXUeIrytFklf1UbjX-1" vertex="1">
          <mxGeometry y="150" width="180" height="40" as="geometry" />
        </mxCell>
        <mxCell id="bpglXUeIrytFklf1UbjX-6" value="" style="line;strokeWidth=1;fillColor=none;align=left;verticalAlign=middle;spacingTop=-1;spacingLeft=3;spacingRight=3;rotatable=0;labelPosition=right;points=[];portConstraint=eastwest;" parent="bpglXUeIrytFklf1UbjX-1" vertex="1">
          <mxGeometry y="190" width="180" height="18" as="geometry" />
        </mxCell>
        <mxCell id="bpglXUeIrytFklf1UbjX-12" value="&lt;div&gt;&amp;lt;&amp;lt;primitive&amp;gt;&amp;gt;&lt;/div&gt;&lt;div&gt;&lt;span style=&quot;background-color: transparent; color: light-dark(rgb(0, 0, 0), rgb(255, 255, 255));&quot;&gt;AdresseT&lt;/span&gt;&lt;/div&gt;" style="swimlane;fontStyle=0;align=center;verticalAlign=top;childLayout=stackLayout;horizontal=1;startSize=40;horizontalStack=0;resizeParent=1;resizeParentMax=0;resizeLast=0;collapsible=0;marginBottom=0;html=1;whiteSpace=wrap;fillColor=#e1d5e7;strokeColor=#9673a6;" parent="1" vertex="1">
          <mxGeometry x="150" width="140" height="128" as="geometry" />
        </mxCell>
        <mxCell id="bpglXUeIrytFklf1UbjX-14" value="- strasse : String" style="text;html=1;strokeColor=none;fillColor=none;align=left;verticalAlign=middle;spacingLeft=4;spacingRight=4;overflow=hidden;rotatable=0;points=[[0,0.5],[1,0.5]];portConstraint=eastwest;whiteSpace=wrap;" parent="bpglXUeIrytFklf1UbjX-12" vertex="1">
          <mxGeometry y="40" width="140" height="20" as="geometry" />
        </mxCell>
        <mxCell id="bpglXUeIrytFklf1UbjX-16" value="- hausnummer : String" style="text;html=1;strokeColor=none;fillColor=none;align=left;verticalAlign=middle;spacingLeft=4;spacingRight=4;overflow=hidden;rotatable=0;points=[[0,0.5],[1,0.5]];portConstraint=eastwest;whiteSpace=wrap;" parent="bpglXUeIrytFklf1UbjX-12" vertex="1">
          <mxGeometry y="60" width="140" height="20" as="geometry" />
        </mxCell>
        <mxCell id="bpglXUeIrytFklf1UbjX-21" value="- postleitzahl : int" style="text;html=1;strokeColor=none;fillColor=none;align=left;verticalAlign=middle;spacingLeft=4;spacingRight=4;overflow=hidden;rotatable=0;points=[[0,0.5],[1,0.5]];portConstraint=eastwest;whiteSpace=wrap;" parent="bpglXUeIrytFklf1UbjX-12" vertex="1">
          <mxGeometry y="80" width="140" height="20" as="geometry" />
        </mxCell>
        <mxCell id="bpglXUeIrytFklf1UbjX-20" value="- ort : String" style="text;html=1;strokeColor=none;fillColor=none;align=left;verticalAlign=middle;spacingLeft=4;spacingRight=4;overflow=hidden;rotatable=0;points=[[0,0.5],[1,0.5]];portConstraint=eastwest;whiteSpace=wrap;" parent="bpglXUeIrytFklf1UbjX-12" vertex="1">
          <mxGeometry y="100" width="140" height="20" as="geometry" />
        </mxCell>
        <mxCell id="bpglXUeIrytFklf1UbjX-17" value="" style="line;strokeWidth=1;fillColor=none;align=left;verticalAlign=middle;spacingTop=-1;spacingLeft=3;spacingRight=3;rotatable=0;labelPosition=right;points=[];portConstraint=eastwest;" parent="bpglXUeIrytFklf1UbjX-12" vertex="1">
          <mxGeometry y="120" width="140" height="8" as="geometry" />
        </mxCell>
        <mxCell id="bpglXUeIrytFklf1UbjX-23" value="&lt;b&gt;Benutzer&lt;/b&gt;&lt;br&gt;{abstract}" style="swimlane;fontStyle=0;align=center;verticalAlign=top;childLayout=stackLayout;horizontal=1;startSize=40;horizontalStack=0;resizeParent=1;resizeParentMax=0;resizeLast=0;collapsible=0;marginBottom=0;html=1;whiteSpace=wrap;fillColor=#fff2cc;strokeColor=#d6b656;" parent="1" vertex="1">
          <mxGeometry y="210" width="140" height="268" as="geometry" />
        </mxCell>
        <mxCell id="bpglXUeIrytFklf1UbjX-25" value="- id : UUID" style="text;html=1;strokeColor=none;fillColor=none;align=left;verticalAlign=middle;spacingLeft=4;spacingRight=4;overflow=hidden;rotatable=0;points=[[0,0.5],[1,0.5]];portConstraint=eastwest;whiteSpace=wrap;" parent="bpglXUeIrytFklf1UbjX-23" vertex="1">
          <mxGeometry y="40" width="140" height="20" as="geometry" />
        </mxCell>
        <mxCell id="bpglXUeIrytFklf1UbjX-27" value="- vorname : String" style="text;html=1;strokeColor=none;fillColor=none;align=left;verticalAlign=middle;spacingLeft=4;spacingRight=4;overflow=hidden;rotatable=0;points=[[0,0.5],[1,0.5]];portConstraint=eastwest;whiteSpace=wrap;" parent="bpglXUeIrytFklf1UbjX-23" vertex="1">
          <mxGeometry y="60" width="140" height="20" as="geometry" />
        </mxCell>
        <mxCell id="bpglXUeIrytFklf1UbjX-39" value="- nachname : String" style="text;html=1;strokeColor=none;fillColor=none;align=left;verticalAlign=middle;spacingLeft=4;spacingRight=4;overflow=hidden;rotatable=0;points=[[0,0.5],[1,0.5]];portConstraint=eastwest;whiteSpace=wrap;" parent="bpglXUeIrytFklf1UbjX-23" vertex="1">
          <mxGeometry y="80" width="140" height="20" as="geometry" />
        </mxCell>
        <mxCell id="cIxH9JpfDONpvVzxSToF-2" value="- email : String" style="text;html=1;strokeColor=none;fillColor=none;align=left;verticalAlign=middle;spacingLeft=4;spacingRight=4;overflow=hidden;rotatable=0;points=[[0,0.5],[1,0.5]];portConstraint=eastwest;whiteSpace=wrap;" parent="bpglXUeIrytFklf1UbjX-23" vertex="1">
          <mxGeometry y="100" width="140" height="20" as="geometry" />
        </mxCell>
        <mxCell id="bpglXUeIrytFklf1UbjX-37" value="- rolle : String" style="text;html=1;strokeColor=none;fillColor=none;align=left;verticalAlign=middle;spacingLeft=4;spacingRight=4;overflow=hidden;rotatable=0;points=[[0,0.5],[1,0.5]];portConstraint=eastwest;whiteSpace=wrap;" parent="bpglXUeIrytFklf1UbjX-23" vertex="1">
          <mxGeometry y="120" width="140" height="20" as="geometry" />
        </mxCell>
        <mxCell id="bpglXUeIrytFklf1UbjX-36" value="- keycloakId: String" style="text;html=1;strokeColor=none;fillColor=none;align=left;verticalAlign=middle;spacingLeft=4;spacingRight=4;overflow=hidden;rotatable=0;points=[[0,0.5],[1,0.5]];portConstraint=eastwest;whiteSpace=wrap;" parent="bpglXUeIrytFklf1UbjX-23" vertex="1">
          <mxGeometry y="140" width="140" height="20" as="geometry" />
        </mxCell>
        <mxCell id="5ih0zI0dsJdmYs3tvsHG-6" value="- token: String" style="text;html=1;strokeColor=none;fillColor=none;align=left;verticalAlign=middle;spacingLeft=4;spacingRight=4;overflow=hidden;rotatable=0;points=[[0,0.5],[1,0.5]];portConstraint=eastwest;whiteSpace=wrap;" vertex="1" parent="bpglXUeIrytFklf1UbjX-23">
          <mxGeometry y="160" width="140" height="20" as="geometry" />
        </mxCell>
        <mxCell id="5ih0zI0dsJdmYs3tvsHG-7" value="- benutzername: String" style="text;html=1;strokeColor=none;fillColor=none;align=left;verticalAlign=middle;spacingLeft=4;spacingRight=4;overflow=hidden;rotatable=0;points=[[0,0.5],[1,0.5]];portConstraint=eastwest;whiteSpace=wrap;" vertex="1" parent="bpglXUeIrytFklf1UbjX-23">
          <mxGeometry y="180" width="140" height="20" as="geometry" />
        </mxCell>
        <mxCell id="bpglXUeIrytFklf1UbjX-35" value="- neuesPasswort: String" style="text;html=1;strokeColor=none;fillColor=none;align=left;verticalAlign=middle;spacingLeft=4;spacingRight=4;overflow=hidden;rotatable=0;points=[[0,0.5],[1,0.5]];portConstraint=eastwest;whiteSpace=wrap;" parent="bpglXUeIrytFklf1UbjX-23" vertex="1">
          <mxGeometry y="200" width="140" height="20" as="geometry" />
        </mxCell>
        <mxCell id="5ih0zI0dsJdmYs3tvsHG-8" value="- bestätigtesPasswort: String" style="text;html=1;strokeColor=none;fillColor=none;align=left;verticalAlign=middle;spacingLeft=4;spacingRight=4;overflow=hidden;rotatable=0;points=[[0,0.5],[1,0.5]];portConstraint=eastwest;whiteSpace=wrap;" vertex="1" parent="bpglXUeIrytFklf1UbjX-23">
          <mxGeometry y="220" width="140" height="40" as="geometry" />
        </mxCell>
        <mxCell id="bpglXUeIrytFklf1UbjX-28" value="" style="line;strokeWidth=1;fillColor=none;align=left;verticalAlign=middle;spacingTop=-1;spacingLeft=3;spacingRight=3;rotatable=0;labelPosition=right;points=[];portConstraint=eastwest;" parent="bpglXUeIrytFklf1UbjX-23" vertex="1">
          <mxGeometry y="260" width="140" height="8" as="geometry" />
        </mxCell>
        <mxCell id="5ih0zI0dsJdmYs3tvsHG-20" style="edgeStyle=orthogonalEdgeStyle;rounded=0;orthogonalLoop=1;jettySize=auto;html=1;entryX=1;entryY=0.5;entryDx=0;entryDy=0;endArrow=block;endFill=1;startSize=14;endSize=14;" edge="1" parent="1" source="bpglXUeIrytFklf1UbjX-50" target="cIxH9JpfDONpvVzxSToF-2">
          <mxGeometry relative="1" as="geometry">
            <Array as="points">
              <mxPoint x="180" y="169" />
              <mxPoint x="180" y="320" />
            </Array>
          </mxGeometry>
        </mxCell>
        <mxCell id="bpglXUeIrytFklf1UbjX-50" value="Admin" style="swimlane;fontStyle=0;align=center;verticalAlign=top;childLayout=stackLayout;horizontal=1;startSize=30;horizontalStack=0;resizeParent=1;resizeParentMax=0;resizeLast=0;collapsible=0;marginBottom=0;html=1;whiteSpace=wrap;fillColor=#dae8fc;strokeColor=#6c8ebf;" parent="1" vertex="1">
          <mxGeometry x="230" y="150" width="120" height="38" as="geometry" />
        </mxCell>
        <mxCell id="bpglXUeIrytFklf1UbjX-55" value="" style="line;strokeWidth=1;fillColor=none;align=left;verticalAlign=middle;spacingTop=-1;spacingLeft=3;spacingRight=3;rotatable=0;labelPosition=right;points=[];portConstraint=eastwest;" parent="bpglXUeIrytFklf1UbjX-50" vertex="1">
          <mxGeometry y="30" width="120" height="8" as="geometry" />
        </mxCell>
        <mxCell id="bpglXUeIrytFklf1UbjX-58" value="Teilnehmer" style="swimlane;fontStyle=0;align=center;verticalAlign=top;childLayout=stackLayout;horizontal=1;startSize=30;horizontalStack=0;resizeParent=1;resizeParentMax=0;resizeLast=0;collapsible=0;marginBottom=0;html=1;whiteSpace=wrap;fillColor=#dae8fc;strokeColor=#6c8ebf;" parent="1" vertex="1">
          <mxGeometry x="210" y="260" width="200" height="78" as="geometry" />
        </mxCell>
        <mxCell id="bpglXUeIrytFklf1UbjX-69" value="- kurse_angemeldet: List&amp;lt;Kursanmeldung&amp;gt;" style="text;html=1;strokeColor=none;fillColor=none;align=left;verticalAlign=middle;spacingLeft=4;spacingRight=4;overflow=hidden;rotatable=0;points=[[0,0.5],[1,0.5]];portConstraint=eastwest;whiteSpace=wrap;" parent="bpglXUeIrytFklf1UbjX-58" vertex="1">
          <mxGeometry y="30" width="200" height="40" as="geometry" />
        </mxCell>
        <mxCell id="bpglXUeIrytFklf1UbjX-63" value="" style="line;strokeWidth=1;fillColor=none;align=left;verticalAlign=middle;spacingTop=-1;spacingLeft=3;spacingRight=3;rotatable=0;labelPosition=right;points=[];portConstraint=eastwest;" parent="bpglXUeIrytFklf1UbjX-58" vertex="1">
          <mxGeometry y="70" width="200" height="8" as="geometry" />
        </mxCell>
        <mxCell id="5ih0zI0dsJdmYs3tvsHG-30" style="edgeStyle=orthogonalEdgeStyle;rounded=0;orthogonalLoop=1;jettySize=auto;html=1;entryX=0;entryY=0.5;entryDx=0;entryDy=0;endArrow=open;endFill=0;endSize=14;" edge="1" parent="1" source="bpglXUeIrytFklf1UbjX-73" target="bpglXUeIrytFklf1UbjX-165">
          <mxGeometry relative="1" as="geometry" />
        </mxCell>
        <mxCell id="bpglXUeIrytFklf1UbjX-73" value="Trainer" style="swimlane;fontStyle=0;align=center;verticalAlign=top;childLayout=stackLayout;horizontal=1;startSize=28;horizontalStack=0;resizeParent=1;resizeParentMax=0;resizeLast=0;collapsible=0;marginBottom=0;html=1;whiteSpace=wrap;fillColor=#dae8fc;strokeColor=#6c8ebf;" parent="1" vertex="1">
          <mxGeometry x="230" y="390" width="140" height="98" as="geometry" />
        </mxCell>
        <mxCell id="bpglXUeIrytFklf1UbjX-83" value="&lt;font style=&quot;font-size: 11px;&quot;&gt;- status : TrainerStatusET&lt;/font&gt;" style="text;html=1;strokeColor=none;fillColor=none;align=left;verticalAlign=middle;spacingLeft=4;spacingRight=4;overflow=hidden;rotatable=0;points=[[0,0.5],[1,0.5]];portConstraint=eastwest;whiteSpace=wrap;" parent="bpglXUeIrytFklf1UbjX-73" vertex="1">
          <mxGeometry y="28" width="140" height="20" as="geometry" />
        </mxCell>
        <mxCell id="cIxH9JpfDONpvVzxSToF-1" value="- verfügbarkeiten: List&amp;lt;Verfügbarkeit&amp;gt;" style="text;html=1;strokeColor=none;fillColor=none;align=left;verticalAlign=middle;spacingLeft=4;spacingRight=4;overflow=hidden;rotatable=0;points=[[0,0.5],[1,0.5]];portConstraint=eastwest;whiteSpace=wrap;" parent="bpglXUeIrytFklf1UbjX-73" vertex="1">
          <mxGeometry y="48" width="140" height="42" as="geometry" />
        </mxCell>
        <mxCell id="bpglXUeIrytFklf1UbjX-78" value="" style="line;strokeWidth=1;fillColor=none;align=left;verticalAlign=middle;spacingTop=-1;spacingLeft=3;spacingRight=3;rotatable=0;labelPosition=right;points=[];portConstraint=eastwest;" parent="bpglXUeIrytFklf1UbjX-73" vertex="1">
          <mxGeometry y="90" width="140" height="8" as="geometry" />
        </mxCell>
        <mxCell id="bpglXUeIrytFklf1UbjX-84" value="&amp;lt;&amp;lt;enumeration&amp;gt;&amp;gt;&lt;br&gt;&lt;b&gt;TrainerStatusET&lt;/b&gt;" style="swimlane;fontStyle=0;align=center;verticalAlign=top;childLayout=stackLayout;horizontal=1;startSize=40;horizontalStack=0;resizeParent=1;resizeParentMax=0;resizeLast=0;collapsible=0;marginBottom=0;html=1;whiteSpace=wrap;fillColor=#e1d5e7;strokeColor=#9673a6;" parent="1" vertex="1">
          <mxGeometry x="300" width="140" height="108" as="geometry" />
        </mxCell>
        <mxCell id="bpglXUeIrytFklf1UbjX-86" value="Vorläufig" style="text;html=1;strokeColor=none;fillColor=none;align=left;verticalAlign=middle;spacingLeft=4;spacingRight=4;overflow=hidden;rotatable=0;points=[[0,0.5],[1,0.5]];portConstraint=eastwest;whiteSpace=wrap;" parent="bpglXUeIrytFklf1UbjX-84" vertex="1">
          <mxGeometry y="40" width="140" height="20" as="geometry" />
        </mxCell>
        <mxCell id="bpglXUeIrytFklf1UbjX-93" value="Aktiv" style="text;html=1;strokeColor=none;fillColor=none;align=left;verticalAlign=middle;spacingLeft=4;spacingRight=4;overflow=hidden;rotatable=0;points=[[0,0.5],[1,0.5]];portConstraint=eastwest;whiteSpace=wrap;" parent="bpglXUeIrytFklf1UbjX-84" vertex="1">
          <mxGeometry y="60" width="140" height="20" as="geometry" />
        </mxCell>
        <mxCell id="bpglXUeIrytFklf1UbjX-92" value="Gesperrt" style="text;html=1;strokeColor=none;fillColor=none;align=left;verticalAlign=middle;spacingLeft=4;spacingRight=4;overflow=hidden;rotatable=0;points=[[0,0.5],[1,0.5]];portConstraint=eastwest;whiteSpace=wrap;" parent="bpglXUeIrytFklf1UbjX-84" vertex="1">
          <mxGeometry y="80" width="140" height="20" as="geometry" />
        </mxCell>
        <mxCell id="bpglXUeIrytFklf1UbjX-89" value="" style="line;strokeWidth=1;fillColor=none;align=left;verticalAlign=middle;spacingTop=-1;spacingLeft=3;spacingRight=3;rotatable=0;labelPosition=right;points=[];portConstraint=eastwest;" parent="bpglXUeIrytFklf1UbjX-84" vertex="1">
          <mxGeometry y="100" width="140" height="8" as="geometry" />
        </mxCell>
        <mxCell id="5ih0zI0dsJdmYs3tvsHG-26" style="edgeStyle=orthogonalEdgeStyle;rounded=0;orthogonalLoop=1;jettySize=auto;html=1;entryX=1;entryY=0.5;entryDx=0;entryDy=0;endArrow=open;endFill=0;endSize=14;" edge="1" parent="1" source="bpglXUeIrytFklf1UbjX-96" target="bpglXUeIrytFklf1UbjX-129">
          <mxGeometry relative="1" as="geometry">
            <Array as="points">
              <mxPoint x="660" y="340" />
              <mxPoint x="660" y="340" />
            </Array>
          </mxGeometry>
        </mxCell>
        <mxCell id="bpglXUeIrytFklf1UbjX-96" value="Kurs" style="swimlane;fontStyle=0;align=center;verticalAlign=top;childLayout=stackLayout;horizontal=1;startSize=30;horizontalStack=0;resizeParent=1;resizeParentMax=0;resizeLast=0;collapsible=0;marginBottom=0;html=1;whiteSpace=wrap;fillColor=#dae8fc;strokeColor=#6c8ebf;" parent="1" vertex="1">
          <mxGeometry x="680" y="240" width="140" height="258" as="geometry" />
        </mxCell>
        <mxCell id="bpglXUeIrytFklf1UbjX-98" value="- id : UUID" style="text;html=1;strokeColor=none;fillColor=none;align=left;verticalAlign=middle;spacingLeft=4;spacingRight=4;overflow=hidden;rotatable=0;points=[[0,0.5],[1,0.5]];portConstraint=eastwest;whiteSpace=wrap;" parent="bpglXUeIrytFklf1UbjX-96" vertex="1">
          <mxGeometry y="30" width="140" height="20" as="geometry" />
        </mxCell>
        <mxCell id="bpglXUeIrytFklf1UbjX-109" value="- titel : String" style="text;html=1;strokeColor=none;fillColor=none;align=left;verticalAlign=middle;spacingLeft=4;spacingRight=4;overflow=hidden;rotatable=0;points=[[0,0.5],[1,0.5]];portConstraint=eastwest;whiteSpace=wrap;" parent="bpglXUeIrytFklf1UbjX-96" vertex="1">
          <mxGeometry y="50" width="140" height="20" as="geometry" />
        </mxCell>
        <mxCell id="bpglXUeIrytFklf1UbjX-108" value="- beschreibung: String" style="text;html=1;strokeColor=none;fillColor=none;align=left;verticalAlign=middle;spacingLeft=4;spacingRight=4;overflow=hidden;rotatable=0;points=[[0,0.5],[1,0.5]];portConstraint=eastwest;whiteSpace=wrap;" parent="bpglXUeIrytFklf1UbjX-96" vertex="1">
          <mxGeometry y="70" width="140" height="20" as="geometry" />
        </mxCell>
        <mxCell id="bpglXUeIrytFklf1UbjX-106" value="- angebot_start : Date" style="text;html=1;strokeColor=none;fillColor=none;align=left;verticalAlign=middle;spacingLeft=4;spacingRight=4;overflow=hidden;rotatable=0;points=[[0,0.5],[1,0.5]];portConstraint=eastwest;whiteSpace=wrap;" parent="bpglXUeIrytFklf1UbjX-96" vertex="1">
          <mxGeometry y="90" width="140" height="20" as="geometry" />
        </mxCell>
        <mxCell id="bpglXUeIrytFklf1UbjX-105" value="- angebot_ende : Date" style="text;html=1;strokeColor=none;fillColor=none;align=left;verticalAlign=middle;spacingLeft=4;spacingRight=4;overflow=hidden;rotatable=0;points=[[0,0.5],[1,0.5]];portConstraint=eastwest;whiteSpace=wrap;" parent="bpglXUeIrytFklf1UbjX-96" vertex="1">
          <mxGeometry y="110" width="140" height="20" as="geometry" />
        </mxCell>
        <mxCell id="bpglXUeIrytFklf1UbjX-120" value="- max_teilnehmer: int" style="text;html=1;strokeColor=none;fillColor=none;align=left;verticalAlign=middle;spacingLeft=4;spacingRight=4;overflow=hidden;rotatable=0;points=[[0,0.5],[1,0.5]];portConstraint=eastwest;whiteSpace=wrap;" parent="bpglXUeIrytFklf1UbjX-96" vertex="1">
          <mxGeometry y="130" width="140" height="20" as="geometry" />
        </mxCell>
        <mxCell id="5ih0zI0dsJdmYs3tvsHG-11" value="- bildUrls: List&amp;lt;String&amp;gt;" style="text;html=1;strokeColor=none;fillColor=none;align=left;verticalAlign=middle;spacingLeft=4;spacingRight=4;overflow=hidden;rotatable=0;points=[[0,0.5],[1,0.5]];portConstraint=eastwest;whiteSpace=wrap;" vertex="1" parent="bpglXUeIrytFklf1UbjX-96">
          <mxGeometry y="150" width="140" height="20" as="geometry" />
        </mxCell>
        <mxCell id="5ih0zI0dsJdmYs3tvsHG-12" value="- verfügbarkeiten: List&amp;lt;Verfügbarkeit&amp;gt;" style="text;html=1;strokeColor=none;fillColor=none;align=left;verticalAlign=middle;spacingLeft=4;spacingRight=4;overflow=hidden;rotatable=0;points=[[0,0.5],[1,0.5]];portConstraint=eastwest;whiteSpace=wrap;" vertex="1" parent="bpglXUeIrytFklf1UbjX-96">
          <mxGeometry y="170" width="140" height="40" as="geometry" />
        </mxCell>
        <mxCell id="5ih0zI0dsJdmYs3tvsHG-13" value="- anmeldungen: List&amp;lt;KursAnmeldung&amp;gt;" style="text;html=1;strokeColor=none;fillColor=none;align=left;verticalAlign=middle;spacingLeft=4;spacingRight=4;overflow=hidden;rotatable=0;points=[[0,0.5],[1,0.5]];portConstraint=eastwest;whiteSpace=wrap;" vertex="1" parent="bpglXUeIrytFklf1UbjX-96">
          <mxGeometry y="210" width="140" height="40" as="geometry" />
        </mxCell>
        <mxCell id="bpglXUeIrytFklf1UbjX-101" value="" style="line;strokeWidth=1;fillColor=none;align=left;verticalAlign=middle;spacingTop=-1;spacingLeft=3;spacingRight=3;rotatable=0;labelPosition=right;points=[];portConstraint=eastwest;" parent="bpglXUeIrytFklf1UbjX-96" vertex="1">
          <mxGeometry y="250" width="140" height="8" as="geometry" />
        </mxCell>
        <mxCell id="bpglXUeIrytFklf1UbjX-110" value="&amp;lt;&amp;lt;enumeration&amp;gt;&amp;gt;&lt;br&gt;&lt;b&gt;WochentagET&lt;/b&gt;" style="swimlane;fontStyle=0;align=center;verticalAlign=top;childLayout=stackLayout;horizontal=1;startSize=40;horizontalStack=0;resizeParent=1;resizeParentMax=0;resizeLast=0;collapsible=0;marginBottom=0;html=1;whiteSpace=wrap;fillColor=#e1d5e7;strokeColor=#9673a6;" parent="1" vertex="1">
          <mxGeometry width="140" height="188" as="geometry" />
        </mxCell>
        <mxCell id="bpglXUeIrytFklf1UbjX-111" value="Montag" style="text;html=1;strokeColor=none;fillColor=none;align=left;verticalAlign=middle;spacingLeft=4;spacingRight=4;overflow=hidden;rotatable=0;points=[[0,0.5],[1,0.5]];portConstraint=eastwest;whiteSpace=wrap;" parent="bpglXUeIrytFklf1UbjX-110" vertex="1">
          <mxGeometry y="40" width="140" height="20" as="geometry" />
        </mxCell>
        <mxCell id="bpglXUeIrytFklf1UbjX-112" value="Dienstag" style="text;html=1;strokeColor=none;fillColor=none;align=left;verticalAlign=middle;spacingLeft=4;spacingRight=4;overflow=hidden;rotatable=0;points=[[0,0.5],[1,0.5]];portConstraint=eastwest;whiteSpace=wrap;" parent="bpglXUeIrytFklf1UbjX-110" vertex="1">
          <mxGeometry y="60" width="140" height="20" as="geometry" />
        </mxCell>
        <mxCell id="bpglXUeIrytFklf1UbjX-113" value="Mittwoch" style="text;html=1;strokeColor=none;fillColor=none;align=left;verticalAlign=middle;spacingLeft=4;spacingRight=4;overflow=hidden;rotatable=0;points=[[0,0.5],[1,0.5]];portConstraint=eastwest;whiteSpace=wrap;" parent="bpglXUeIrytFklf1UbjX-110" vertex="1">
          <mxGeometry y="80" width="140" height="20" as="geometry" />
        </mxCell>
        <mxCell id="bpglXUeIrytFklf1UbjX-118" value="Donnerstag" style="text;html=1;strokeColor=none;fillColor=none;align=left;verticalAlign=middle;spacingLeft=4;spacingRight=4;overflow=hidden;rotatable=0;points=[[0,0.5],[1,0.5]];portConstraint=eastwest;whiteSpace=wrap;" parent="bpglXUeIrytFklf1UbjX-110" vertex="1">
          <mxGeometry y="100" width="140" height="20" as="geometry" />
        </mxCell>
        <mxCell id="bpglXUeIrytFklf1UbjX-117" value="Freitag" style="text;html=1;strokeColor=none;fillColor=none;align=left;verticalAlign=middle;spacingLeft=4;spacingRight=4;overflow=hidden;rotatable=0;points=[[0,0.5],[1,0.5]];portConstraint=eastwest;whiteSpace=wrap;" parent="bpglXUeIrytFklf1UbjX-110" vertex="1">
          <mxGeometry y="120" width="140" height="20" as="geometry" />
        </mxCell>
        <mxCell id="bpglXUeIrytFklf1UbjX-116" value="Samstag" style="text;html=1;strokeColor=none;fillColor=none;align=left;verticalAlign=middle;spacingLeft=4;spacingRight=4;overflow=hidden;rotatable=0;points=[[0,0.5],[1,0.5]];portConstraint=eastwest;whiteSpace=wrap;" parent="bpglXUeIrytFklf1UbjX-110" vertex="1">
          <mxGeometry y="140" width="140" height="20" as="geometry" />
        </mxCell>
        <mxCell id="bpglXUeIrytFklf1UbjX-115" value="Sonntag" style="text;html=1;strokeColor=none;fillColor=none;align=left;verticalAlign=middle;spacingLeft=4;spacingRight=4;overflow=hidden;rotatable=0;points=[[0,0.5],[1,0.5]];portConstraint=eastwest;whiteSpace=wrap;" parent="bpglXUeIrytFklf1UbjX-110" vertex="1">
          <mxGeometry y="160" width="140" height="20" as="geometry" />
        </mxCell>
        <mxCell id="bpglXUeIrytFklf1UbjX-114" value="" style="line;strokeWidth=1;fillColor=none;align=left;verticalAlign=middle;spacingTop=-1;spacingLeft=3;spacingRight=3;rotatable=0;labelPosition=right;points=[];portConstraint=eastwest;" parent="bpglXUeIrytFklf1UbjX-110" vertex="1">
          <mxGeometry y="180" width="140" height="8" as="geometry" />
        </mxCell>
        <mxCell id="bpglXUeIrytFklf1UbjX-126" value="KursAnmeldung" style="swimlane;fontStyle=0;align=center;verticalAlign=top;childLayout=stackLayout;horizontal=1;startSize=30;horizontalStack=0;resizeParent=1;resizeParentMax=0;resizeLast=0;collapsible=0;marginBottom=0;html=1;whiteSpace=wrap;fillColor=#dae8fc;strokeColor=#6c8ebf;" parent="1" vertex="1">
          <mxGeometry x="480" y="250" width="140" height="158" as="geometry" />
        </mxCell>
        <mxCell id="bpglXUeIrytFklf1UbjX-127" value="- id : UUID" style="text;html=1;strokeColor=none;fillColor=none;align=left;verticalAlign=middle;spacingLeft=4;spacingRight=4;overflow=hidden;rotatable=0;points=[[0,0.5],[1,0.5]];portConstraint=eastwest;whiteSpace=wrap;" parent="bpglXUeIrytFklf1UbjX-126" vertex="1">
          <mxGeometry y="30" width="140" height="20" as="geometry" />
        </mxCell>
        <mxCell id="bpglXUeIrytFklf1UbjX-128" value="&lt;font style=&quot;font-size: 11px;&quot;&gt;- teilnehmer : Teilnehmer&lt;/font&gt;" style="text;html=1;strokeColor=none;fillColor=none;align=left;verticalAlign=middle;spacingLeft=4;spacingRight=4;overflow=hidden;rotatable=0;points=[[0,0.5],[1,0.5]];portConstraint=eastwest;whiteSpace=wrap;" parent="bpglXUeIrytFklf1UbjX-126" vertex="1">
          <mxGeometry y="50" width="140" height="20" as="geometry" />
        </mxCell>
        <mxCell id="bpglXUeIrytFklf1UbjX-129" value="- status : AnmeldungStatusET" style="text;html=1;strokeColor=none;fillColor=none;align=left;verticalAlign=middle;spacingLeft=4;spacingRight=4;overflow=hidden;rotatable=0;points=[[0,0.5],[1,0.5]];portConstraint=eastwest;whiteSpace=wrap;" parent="bpglXUeIrytFklf1UbjX-126" vertex="1">
          <mxGeometry y="70" width="140" height="40" as="geometry" />
        </mxCell>
        <mxCell id="bpglXUeIrytFklf1UbjX-131" value="- anmeldedatum : Date" style="text;html=1;strokeColor=none;fillColor=none;align=left;verticalAlign=middle;spacingLeft=4;spacingRight=4;overflow=hidden;rotatable=0;points=[[0,0.5],[1,0.5]];portConstraint=eastwest;whiteSpace=wrap;" parent="bpglXUeIrytFklf1UbjX-126" vertex="1">
          <mxGeometry y="110" width="140" height="20" as="geometry" />
        </mxCell>
        <mxCell id="bpglXUeIrytFklf1UbjX-135" value="- kurs : Kurs" style="text;html=1;strokeColor=none;fillColor=none;align=left;verticalAlign=middle;spacingLeft=4;spacingRight=4;overflow=hidden;rotatable=0;points=[[0,0.5],[1,0.5]];portConstraint=eastwest;whiteSpace=wrap;" parent="bpglXUeIrytFklf1UbjX-126" vertex="1">
          <mxGeometry y="130" width="140" height="20" as="geometry" />
        </mxCell>
        <mxCell id="bpglXUeIrytFklf1UbjX-136" value="" style="line;strokeWidth=1;fillColor=none;align=left;verticalAlign=middle;spacingTop=-1;spacingLeft=3;spacingRight=3;rotatable=0;labelPosition=right;points=[];portConstraint=eastwest;" parent="bpglXUeIrytFklf1UbjX-126" vertex="1">
          <mxGeometry y="150" width="140" height="8" as="geometry" />
        </mxCell>
        <mxCell id="bpglXUeIrytFklf1UbjX-137" value="&amp;lt;&amp;lt;enumeration&amp;gt;&amp;gt;&lt;div&gt;&lt;b&gt;AnmeldungStatusET&lt;/b&gt;&lt;/div&gt;" style="swimlane;fontStyle=0;align=center;verticalAlign=top;childLayout=stackLayout;horizontal=1;startSize=40;horizontalStack=0;resizeParent=1;resizeParentMax=0;resizeLast=0;collapsible=0;marginBottom=0;html=1;whiteSpace=wrap;fillColor=#e1d5e7;strokeColor=#9673a6;" parent="1" vertex="1">
          <mxGeometry x="450" width="140" height="108" as="geometry" />
        </mxCell>
        <mxCell id="bpglXUeIrytFklf1UbjX-138" value="Angemeldet" style="text;html=1;strokeColor=none;fillColor=none;align=left;verticalAlign=middle;spacingLeft=4;spacingRight=4;overflow=hidden;rotatable=0;points=[[0,0.5],[1,0.5]];portConstraint=eastwest;whiteSpace=wrap;" parent="bpglXUeIrytFklf1UbjX-137" vertex="1">
          <mxGeometry y="40" width="140" height="20" as="geometry" />
        </mxCell>
        <mxCell id="bpglXUeIrytFklf1UbjX-139" value="In Bearbeitung" style="text;html=1;strokeColor=none;fillColor=none;align=left;verticalAlign=middle;spacingLeft=4;spacingRight=4;overflow=hidden;rotatable=0;points=[[0,0.5],[1,0.5]];portConstraint=eastwest;whiteSpace=wrap;" parent="bpglXUeIrytFklf1UbjX-137" vertex="1">
          <mxGeometry y="60" width="140" height="20" as="geometry" />
        </mxCell>
        <mxCell id="bpglXUeIrytFklf1UbjX-140" value="Blockiert" style="text;html=1;strokeColor=none;fillColor=none;align=left;verticalAlign=middle;spacingLeft=4;spacingRight=4;overflow=hidden;rotatable=0;points=[[0,0.5],[1,0.5]];portConstraint=eastwest;whiteSpace=wrap;" parent="bpglXUeIrytFklf1UbjX-137" vertex="1">
          <mxGeometry y="80" width="140" height="20" as="geometry" />
        </mxCell>
        <mxCell id="bpglXUeIrytFklf1UbjX-141" value="" style="line;strokeWidth=1;fillColor=none;align=left;verticalAlign=middle;spacingTop=-1;spacingLeft=3;spacingRight=3;rotatable=0;labelPosition=right;points=[];portConstraint=eastwest;" parent="bpglXUeIrytFklf1UbjX-137" vertex="1">
          <mxGeometry y="100" width="140" height="8" as="geometry" />
        </mxCell>
        <mxCell id="5ih0zI0dsJdmYs3tvsHG-31" style="edgeStyle=orthogonalEdgeStyle;rounded=0;orthogonalLoop=1;jettySize=auto;html=1;endArrow=none;endFill=0;endSize=14;startSize=14;startFill=0;startArrow=open;" edge="1" parent="1" source="bpglXUeIrytFklf1UbjX-155">
          <mxGeometry relative="1" as="geometry">
            <mxPoint x="660" y="569" as="targetPoint" />
          </mxGeometry>
        </mxCell>
        <mxCell id="bpglXUeIrytFklf1UbjX-155" value="Verfügbarkeit" style="swimlane;fontStyle=0;align=center;verticalAlign=top;childLayout=stackLayout;horizontal=1;startSize=30;horizontalStack=0;resizeParent=1;resizeParentMax=0;resizeLast=0;collapsible=0;marginBottom=0;html=1;whiteSpace=wrap;fillColor=#dae8fc;strokeColor=#6c8ebf;" parent="1" vertex="1">
          <mxGeometry x="455" y="470" width="140" height="198" as="geometry" />
        </mxCell>
        <mxCell id="bpglXUeIrytFklf1UbjX-157" value="- id : UUID" style="text;html=1;strokeColor=none;fillColor=none;align=left;verticalAlign=middle;spacingLeft=4;spacingRight=4;overflow=hidden;rotatable=0;points=[[0,0.5],[1,0.5]];portConstraint=eastwest;whiteSpace=wrap;" parent="bpglXUeIrytFklf1UbjX-155" vertex="1">
          <mxGeometry y="30" width="140" height="20" as="geometry" />
        </mxCell>
        <mxCell id="bpglXUeIrytFklf1UbjX-165" value="- wochentag : WochentagET" style="text;html=1;strokeColor=none;fillColor=none;align=left;verticalAlign=middle;spacingLeft=4;spacingRight=4;overflow=hidden;rotatable=0;points=[[0,0.5],[1,0.5]];portConstraint=eastwest;whiteSpace=wrap;" parent="bpglXUeIrytFklf1UbjX-155" vertex="1">
          <mxGeometry y="50" width="140" height="40" as="geometry" />
        </mxCell>
        <mxCell id="bpglXUeIrytFklf1UbjX-164" value="&lt;font style=&quot;font-size: 11px;&quot;&gt;- von_uhrzeit : LocalTime&lt;/font&gt;" style="text;html=1;strokeColor=none;fillColor=none;align=left;verticalAlign=middle;spacingLeft=4;spacingRight=4;overflow=hidden;rotatable=0;points=[[0,0.5],[1,0.5]];portConstraint=eastwest;whiteSpace=wrap;" parent="bpglXUeIrytFklf1UbjX-155" vertex="1">
          <mxGeometry y="90" width="140" height="20" as="geometry" />
        </mxCell>
        <mxCell id="bpglXUeIrytFklf1UbjX-163" value="&lt;div&gt;&lt;font style=&quot;font-size: 11px;&quot;&gt;- bis_uhrzeit : LocalTime&lt;/font&gt;&lt;/div&gt;" style="text;html=1;strokeColor=none;fillColor=none;align=left;verticalAlign=middle;spacingLeft=4;spacingRight=4;overflow=hidden;rotatable=0;points=[[0,0.5],[1,0.5]];portConstraint=eastwest;whiteSpace=wrap;" parent="bpglXUeIrytFklf1UbjX-155" vertex="1">
          <mxGeometry y="110" width="140" height="20" as="geometry" />
        </mxCell>
        <mxCell id="5ih0zI0dsJdmYs3tvsHG-14" value="- trainer: Trainer" style="text;html=1;strokeColor=none;fillColor=none;align=left;verticalAlign=middle;spacingLeft=4;spacingRight=4;overflow=hidden;rotatable=0;points=[[0,0.5],[1,0.5]];portConstraint=eastwest;whiteSpace=wrap;" vertex="1" parent="bpglXUeIrytFklf1UbjX-155">
          <mxGeometry y="130" width="140" height="20" as="geometry" />
        </mxCell>
        <mxCell id="5ih0zI0dsJdmYs3tvsHG-15" value="- kurs: Kurs" style="text;html=1;strokeColor=none;fillColor=none;align=left;verticalAlign=middle;spacingLeft=4;spacingRight=4;overflow=hidden;rotatable=0;points=[[0,0.5],[1,0.5]];portConstraint=eastwest;whiteSpace=wrap;" vertex="1" parent="bpglXUeIrytFklf1UbjX-155">
          <mxGeometry y="150" width="140" height="20" as="geometry" />
        </mxCell>
        <mxCell id="5ih0zI0dsJdmYs3tvsHG-16" value="- location: Location" style="text;html=1;strokeColor=none;fillColor=none;align=left;verticalAlign=middle;spacingLeft=4;spacingRight=4;overflow=hidden;rotatable=0;points=[[0,0.5],[1,0.5]];portConstraint=eastwest;whiteSpace=wrap;" vertex="1" parent="bpglXUeIrytFklf1UbjX-155">
          <mxGeometry y="170" width="140" height="20" as="geometry" />
        </mxCell>
        <mxCell id="bpglXUeIrytFklf1UbjX-160" value="" style="line;strokeWidth=1;fillColor=none;align=left;verticalAlign=middle;spacingTop=-1;spacingLeft=3;spacingRight=3;rotatable=0;labelPosition=right;points=[];portConstraint=eastwest;" parent="bpglXUeIrytFklf1UbjX-155" vertex="1">
          <mxGeometry y="190" width="140" height="8" as="geometry" />
        </mxCell>
        <mxCell id="alJDZY-AKsbJDuTatwF_-8" value="Location" style="swimlane;fontStyle=0;align=center;verticalAlign=top;childLayout=stackLayout;horizontal=1;startSize=25;horizontalStack=0;resizeParent=1;resizeParentMax=0;resizeLast=0;collapsible=0;marginBottom=0;html=1;whiteSpace=wrap;fillColor=#dae8fc;strokeColor=#6c8ebf;" parent="1" vertex="1">
          <mxGeometry x="665" y="550" width="130" height="190" as="geometry" />
        </mxCell>
        <mxCell id="alJDZY-AKsbJDuTatwF_-10" value="- id : UUID" style="text;html=1;strokeColor=none;fillColor=none;align=left;verticalAlign=middle;spacingLeft=4;spacingRight=4;overflow=hidden;rotatable=0;points=[[0,0.5],[1,0.5]];portConstraint=eastwest;whiteSpace=wrap;" parent="alJDZY-AKsbJDuTatwF_-8" vertex="1">
          <mxGeometry y="25" width="130" height="20" as="geometry" />
        </mxCell>
        <mxCell id="alJDZY-AKsbJDuTatwF_-12" value="- name: String" style="text;html=1;strokeColor=none;fillColor=none;align=left;verticalAlign=middle;spacingLeft=4;spacingRight=4;overflow=hidden;rotatable=0;points=[[0,0.5],[1,0.5]];portConstraint=eastwest;whiteSpace=wrap;" parent="alJDZY-AKsbJDuTatwF_-8" vertex="1">
          <mxGeometry y="45" width="130" height="20" as="geometry" />
        </mxCell>
        <mxCell id="alJDZY-AKsbJDuTatwF_-16" value="- max_teilnehmer : int" style="text;html=1;strokeColor=none;fillColor=none;align=left;verticalAlign=middle;spacingLeft=4;spacingRight=4;overflow=hidden;rotatable=0;points=[[0,0.5],[1,0.5]];portConstraint=eastwest;whiteSpace=wrap;" parent="alJDZY-AKsbJDuTatwF_-8" vertex="1">
          <mxGeometry y="65" width="130" height="20" as="geometry" />
        </mxCell>
        <mxCell id="cIxH9JpfDONpvVzxSToF-13" value="- status: StatusET" style="text;html=1;strokeColor=none;fillColor=none;align=left;verticalAlign=middle;spacingLeft=4;spacingRight=4;overflow=hidden;rotatable=0;points=[[0,0.5],[1,0.5]];portConstraint=eastwest;whiteSpace=wrap;" parent="alJDZY-AKsbJDuTatwF_-8" vertex="1">
          <mxGeometry y="85" width="130" height="25" as="geometry" />
        </mxCell>
        <mxCell id="5ih0zI0dsJdmYs3tvsHG-9" value="- equipmentList: List&amp;lt;Equipment&amp;gt;" style="text;html=1;strokeColor=none;fillColor=none;align=left;verticalAlign=middle;spacingLeft=4;spacingRight=4;overflow=hidden;rotatable=0;points=[[0,0.5],[1,0.5]];portConstraint=eastwest;whiteSpace=wrap;" vertex="1" parent="alJDZY-AKsbJDuTatwF_-8">
          <mxGeometry y="110" width="130" height="40" as="geometry" />
        </mxCell>
        <mxCell id="5ih0zI0dsJdmYs3tvsHG-10" value="- verfügbarkeiten: List&amp;lt;Verfügbarkeit&amp;gt;" style="text;html=1;strokeColor=none;fillColor=none;align=left;verticalAlign=middle;spacingLeft=4;spacingRight=4;overflow=hidden;rotatable=0;points=[[0,0.5],[1,0.5]];portConstraint=eastwest;whiteSpace=wrap;" vertex="1" parent="alJDZY-AKsbJDuTatwF_-8">
          <mxGeometry y="150" width="130" height="40" as="geometry" />
        </mxCell>
        <mxCell id="alJDZY-AKsbJDuTatwF_-21" value="Equipment" style="swimlane;fontStyle=0;align=center;verticalAlign=top;childLayout=stackLayout;horizontal=1;startSize=25;horizontalStack=0;resizeParent=1;resizeParentMax=0;resizeLast=0;collapsible=0;marginBottom=0;html=1;whiteSpace=wrap;fillColor=#dae8fc;strokeColor=#6c8ebf;" parent="1" vertex="1">
          <mxGeometry x="850" y="570" width="140" height="133" as="geometry" />
        </mxCell>
        <mxCell id="alJDZY-AKsbJDuTatwF_-22" value="- id : UUID" style="text;html=1;strokeColor=none;fillColor=none;align=left;verticalAlign=middle;spacingLeft=4;spacingRight=4;overflow=hidden;rotatable=0;points=[[0,0.5],[1,0.5]];portConstraint=eastwest;whiteSpace=wrap;" parent="alJDZY-AKsbJDuTatwF_-21" vertex="1">
          <mxGeometry y="25" width="140" height="20" as="geometry" />
        </mxCell>
        <mxCell id="alJDZY-AKsbJDuTatwF_-23" value="- name: String" style="text;html=1;strokeColor=none;fillColor=none;align=left;verticalAlign=middle;spacingLeft=4;spacingRight=4;overflow=hidden;rotatable=0;points=[[0,0.5],[1,0.5]];portConstraint=eastwest;whiteSpace=wrap;" parent="alJDZY-AKsbJDuTatwF_-21" vertex="1">
          <mxGeometry y="45" width="140" height="20" as="geometry" />
        </mxCell>
        <mxCell id="alJDZY-AKsbJDuTatwF_-29" value="- beschreibung: String" style="text;html=1;strokeColor=none;fillColor=none;align=left;verticalAlign=middle;spacingLeft=4;spacingRight=4;overflow=hidden;rotatable=0;points=[[0,0.5],[1,0.5]];portConstraint=eastwest;whiteSpace=wrap;" parent="alJDZY-AKsbJDuTatwF_-21" vertex="1">
          <mxGeometry y="65" width="140" height="20" as="geometry" />
        </mxCell>
        <mxCell id="alJDZY-AKsbJDuTatwF_-24" value="- anzahl: int" style="text;html=1;strokeColor=none;fillColor=none;align=left;verticalAlign=middle;spacingLeft=4;spacingRight=4;overflow=hidden;rotatable=0;points=[[0,0.5],[1,0.5]];portConstraint=eastwest;whiteSpace=wrap;" parent="alJDZY-AKsbJDuTatwF_-21" vertex="1">
          <mxGeometry y="85" width="140" height="20" as="geometry" />
        </mxCell>
        <mxCell id="alJDZY-AKsbJDuTatwF_-31" value="- location: Location" style="text;html=1;strokeColor=none;fillColor=none;align=left;verticalAlign=middle;spacingLeft=4;spacingRight=4;overflow=hidden;rotatable=0;points=[[0,0.5],[1,0.5]];portConstraint=eastwest;whiteSpace=wrap;" parent="alJDZY-AKsbJDuTatwF_-21" vertex="1">
          <mxGeometry y="105" width="140" height="20" as="geometry" />
        </mxCell>
        <mxCell id="alJDZY-AKsbJDuTatwF_-25" value="" style="line;strokeWidth=1;fillColor=none;align=left;verticalAlign=middle;spacingTop=-1;spacingLeft=3;spacingRight=3;rotatable=0;labelPosition=right;points=[];portConstraint=eastwest;" parent="alJDZY-AKsbJDuTatwF_-21" vertex="1">
          <mxGeometry y="125" width="140" height="8" as="geometry" />
        </mxCell>
        <mxCell id="cIxH9JpfDONpvVzxSToF-5" value="LocationStatusT" style="swimlane;fontStyle=0;align=center;verticalAlign=top;childLayout=stackLayout;horizontal=1;startSize=30;horizontalStack=0;resizeParent=1;resizeParentMax=0;resizeLast=0;collapsible=0;marginBottom=0;html=1;whiteSpace=wrap;fillColor=#e1d5e7;strokeColor=#9673a6;" parent="1" vertex="1">
          <mxGeometry x="600" width="140" height="90" as="geometry" />
        </mxCell>
        <mxCell id="cIxH9JpfDONpvVzxSToF-7" value="&lt;font style=&quot;font-size: 11px;&quot;&gt;- aktiv : boolean&lt;/font&gt;" style="text;html=1;strokeColor=none;fillColor=none;align=left;verticalAlign=middle;spacingLeft=4;spacingRight=4;overflow=hidden;rotatable=0;points=[[0,0.5],[1,0.5]];portConstraint=eastwest;whiteSpace=wrap;" parent="cIxH9JpfDONpvVzxSToF-5" vertex="1">
          <mxGeometry y="30" width="140" height="20" as="geometry" />
        </mxCell>
        <mxCell id="cIxH9JpfDONpvVzxSToF-9" value="- beschreibung : string" style="text;html=1;strokeColor=none;fillColor=none;align=left;verticalAlign=middle;spacingLeft=4;spacingRight=4;overflow=hidden;rotatable=0;points=[[0,0.5],[1,0.5]];portConstraint=eastwest;whiteSpace=wrap;" parent="cIxH9JpfDONpvVzxSToF-5" vertex="1">
          <mxGeometry y="50" width="140" height="20" as="geometry" />
        </mxCell>
        <mxCell id="cIxH9JpfDONpvVzxSToF-11" value="" style="line;strokeWidth=1;fillColor=none;align=left;verticalAlign=middle;spacingTop=-1;spacingLeft=3;spacingRight=3;rotatable=0;labelPosition=right;points=[];portConstraint=eastwest;" parent="cIxH9JpfDONpvVzxSToF-5" vertex="1">
          <mxGeometry y="70" width="140" height="20" as="geometry" />
        </mxCell>
        <mxCell id="R34qqxg1m0l4ado87kVO-23" value="ÖffnungszeitT" style="swimlane;fontStyle=0;align=center;verticalAlign=top;childLayout=stackLayout;horizontal=1;startSize=30;horizontalStack=0;resizeParent=1;resizeParentMax=0;resizeLast=0;collapsible=0;marginBottom=0;html=1;whiteSpace=wrap;fillColor=#e1d5e7;strokeColor=#9673a6;" parent="1" vertex="1">
          <mxGeometry x="640" y="100" width="180" height="98" as="geometry" />
        </mxCell>
        <mxCell id="R34qqxg1m0l4ado87kVO-25" value="- tag: WochentagET" style="text;html=1;strokeColor=none;fillColor=none;align=left;verticalAlign=middle;spacingLeft=4;spacingRight=4;overflow=hidden;rotatable=0;points=[[0,0.5],[1,0.5]];portConstraint=eastwest;whiteSpace=wrap;" parent="R34qqxg1m0l4ado87kVO-23" vertex="1">
          <mxGeometry y="30" width="180" height="20" as="geometry" />
        </mxCell>
        <mxCell id="R34qqxg1m0l4ado87kVO-26" value="- beginn: LocalTime" style="text;html=1;strokeColor=none;fillColor=none;align=left;verticalAlign=middle;spacingLeft=4;spacingRight=4;overflow=hidden;rotatable=0;points=[[0,0.5],[1,0.5]];portConstraint=eastwest;whiteSpace=wrap;" parent="R34qqxg1m0l4ado87kVO-23" vertex="1">
          <mxGeometry y="50" width="180" height="20" as="geometry" />
        </mxCell>
        <mxCell id="R34qqxg1m0l4ado87kVO-32" value="- ende: LocalTime" style="text;html=1;strokeColor=none;fillColor=none;align=left;verticalAlign=middle;spacingLeft=4;spacingRight=4;overflow=hidden;rotatable=0;points=[[0,0.5],[1,0.5]];portConstraint=eastwest;whiteSpace=wrap;" parent="R34qqxg1m0l4ado87kVO-23" vertex="1">
          <mxGeometry y="70" width="180" height="20" as="geometry" />
        </mxCell>
        <mxCell id="R34qqxg1m0l4ado87kVO-30" value="" style="line;strokeWidth=1;fillColor=none;align=left;verticalAlign=middle;spacingTop=-1;spacingLeft=3;spacingRight=3;rotatable=0;labelPosition=right;points=[];portConstraint=eastwest;" parent="R34qqxg1m0l4ado87kVO-23" vertex="1">
          <mxGeometry y="90" width="180" height="8" as="geometry" />
        </mxCell>
        <mxCell id="5ih0zI0dsJdmYs3tvsHG-1" value="LocationStatusT" style="swimlane;fontStyle=0;align=center;verticalAlign=top;childLayout=stackLayout;horizontal=1;startSize=30;horizontalStack=0;resizeParent=1;resizeParentMax=0;resizeLast=0;collapsible=0;marginBottom=0;html=1;whiteSpace=wrap;fillColor=#e1d5e7;strokeColor=#9673a6;" vertex="1" parent="1">
          <mxGeometry x="450" y="120" width="180" height="78" as="geometry" />
        </mxCell>
        <mxCell id="5ih0zI0dsJdmYs3tvsHG-2" value="- aktiv: boolean" style="text;html=1;strokeColor=none;fillColor=none;align=left;verticalAlign=middle;spacingLeft=4;spacingRight=4;overflow=hidden;rotatable=0;points=[[0,0.5],[1,0.5]];portConstraint=eastwest;whiteSpace=wrap;" vertex="1" parent="5ih0zI0dsJdmYs3tvsHG-1">
          <mxGeometry y="30" width="180" height="20" as="geometry" />
        </mxCell>
        <mxCell id="5ih0zI0dsJdmYs3tvsHG-3" value="- beschreibung:String" style="text;html=1;strokeColor=none;fillColor=none;align=left;verticalAlign=middle;spacingLeft=4;spacingRight=4;overflow=hidden;rotatable=0;points=[[0,0.5],[1,0.5]];portConstraint=eastwest;whiteSpace=wrap;" vertex="1" parent="5ih0zI0dsJdmYs3tvsHG-1">
          <mxGeometry y="50" width="180" height="20" as="geometry" />
        </mxCell>
        <mxCell id="5ih0zI0dsJdmYs3tvsHG-5" value="" style="line;strokeWidth=1;fillColor=none;align=left;verticalAlign=middle;spacingTop=-1;spacingLeft=3;spacingRight=3;rotatable=0;labelPosition=right;points=[];portConstraint=eastwest;" vertex="1" parent="5ih0zI0dsJdmYs3tvsHG-1">
          <mxGeometry y="70" width="180" height="8" as="geometry" />
        </mxCell>
        <mxCell id="5ih0zI0dsJdmYs3tvsHG-21" style="edgeStyle=orthogonalEdgeStyle;rounded=0;orthogonalLoop=1;jettySize=auto;html=1;entryX=1;entryY=0.5;entryDx=0;entryDy=0;endArrow=none;startFill=0;" edge="1" parent="1" source="bpglXUeIrytFklf1UbjX-69" target="cIxH9JpfDONpvVzxSToF-2">
          <mxGeometry relative="1" as="geometry">
            <Array as="points">
              <mxPoint x="180" y="310" />
              <mxPoint x="180" y="320" />
            </Array>
          </mxGeometry>
        </mxCell>
        <mxCell id="5ih0zI0dsJdmYs3tvsHG-22" style="edgeStyle=orthogonalEdgeStyle;rounded=0;orthogonalLoop=1;jettySize=auto;html=1;entryX=1;entryY=0.5;entryDx=0;entryDy=0;endArrow=none;startFill=0;" edge="1" parent="1" source="bpglXUeIrytFklf1UbjX-83" target="cIxH9JpfDONpvVzxSToF-2">
          <mxGeometry relative="1" as="geometry">
            <Array as="points">
              <mxPoint x="180" y="428" />
              <mxPoint x="180" y="320" />
            </Array>
          </mxGeometry>
        </mxCell>
        <mxCell id="5ih0zI0dsJdmYs3tvsHG-23" style="edgeStyle=orthogonalEdgeStyle;rounded=0;orthogonalLoop=1;jettySize=auto;html=1;entryX=0;entryY=0.5;entryDx=0;entryDy=0;endArrow=open;endFill=0;endSize=14;startSize=14;" edge="1" parent="1" source="alJDZY-AKsbJDuTatwF_-16" target="alJDZY-AKsbJDuTatwF_-23">
          <mxGeometry relative="1" as="geometry" />
        </mxCell>
        <mxCell id="5ih0zI0dsJdmYs3tvsHG-24" value="1" style="text;html=1;align=center;verticalAlign=middle;resizable=0;points=[];autosize=1;strokeColor=none;fillColor=none;" vertex="1" parent="1">
          <mxGeometry x="790" y="599" width="30" height="30" as="geometry" />
        </mxCell>
        <mxCell id="5ih0zI0dsJdmYs3tvsHG-25" value="n" style="text;html=1;align=center;verticalAlign=middle;resizable=0;points=[];autosize=1;strokeColor=none;fillColor=none;" vertex="1" parent="1">
          <mxGeometry x="825" y="598" width="30" height="30" as="geometry" />
        </mxCell>
        <mxCell id="5ih0zI0dsJdmYs3tvsHG-28" style="edgeStyle=orthogonalEdgeStyle;rounded=0;orthogonalLoop=1;jettySize=auto;html=1;entryX=1;entryY=0.5;entryDx=0;entryDy=0;endArrow=open;endFill=0;endSize=14;" edge="1" parent="1" source="5ih0zI0dsJdmYs3tvsHG-11" target="bpglXUeIrytFklf1UbjX-157">
          <mxGeometry relative="1" as="geometry" />
        </mxCell>
        <mxCell id="5ih0zI0dsJdmYs3tvsHG-29" style="edgeStyle=orthogonalEdgeStyle;rounded=0;orthogonalLoop=1;jettySize=auto;html=1;entryX=0;entryY=0.5;entryDx=0;entryDy=0;endArrow=open;endFill=0;endSize=14;" edge="1" parent="1" source="bpglXUeIrytFklf1UbjX-69" target="bpglXUeIrytFklf1UbjX-128">
          <mxGeometry relative="1" as="geometry" />
        </mxCell>
        <mxCell id="5ih0zI0dsJdmYs3tvsHG-32" value="1" style="text;html=1;align=center;verticalAlign=middle;resizable=0;points=[];autosize=1;strokeColor=none;fillColor=none;" vertex="1" parent="1">
          <mxGeometry x="405" y="288" width="30" height="30" as="geometry" />
        </mxCell>
        <mxCell id="5ih0zI0dsJdmYs3tvsHG-33" value="n" style="text;html=1;align=center;verticalAlign=middle;resizable=0;points=[];autosize=1;strokeColor=none;fillColor=none;" vertex="1" parent="1">
          <mxGeometry x="455" y="288" width="30" height="30" as="geometry" />
        </mxCell>
        <mxCell id="5ih0zI0dsJdmYs3tvsHG-34" value="1" style="text;html=1;align=center;verticalAlign=middle;resizable=0;points=[];autosize=1;strokeColor=none;fillColor=none;" vertex="1" parent="1">
          <mxGeometry x="295" y="478" width="30" height="30" as="geometry" />
        </mxCell>
        <mxCell id="5ih0zI0dsJdmYs3tvsHG-35" value="n" style="text;html=1;align=center;verticalAlign=middle;resizable=0;points=[];autosize=1;strokeColor=none;fillColor=none;" vertex="1" parent="1">
          <mxGeometry x="425" y="518" width="30" height="30" as="geometry" />
        </mxCell>
        <mxCell id="5ih0zI0dsJdmYs3tvsHG-36" value="n" style="text;html=1;align=center;verticalAlign=middle;resizable=0;points=[];autosize=1;strokeColor=none;fillColor=none;" vertex="1" parent="1">
          <mxGeometry x="595" y="538" width="30" height="30" as="geometry" />
        </mxCell>
        <mxCell id="5ih0zI0dsJdmYs3tvsHG-37" value="1" style="text;html=1;align=center;verticalAlign=middle;resizable=0;points=[];autosize=1;strokeColor=none;fillColor=none;" vertex="1" parent="1">
          <mxGeometry x="645" y="538" width="30" height="30" as="geometry" />
        </mxCell>
        <mxCell id="5ih0zI0dsJdmYs3tvsHG-38" value="1" style="text;html=1;align=center;verticalAlign=middle;resizable=0;points=[];autosize=1;strokeColor=none;fillColor=none;" vertex="1" parent="1">
          <mxGeometry x="655" y="378" width="30" height="30" as="geometry" />
        </mxCell>
        <mxCell id="5ih0zI0dsJdmYs3tvsHG-39" value="n" style="text;html=1;align=center;verticalAlign=middle;resizable=0;points=[];autosize=1;strokeColor=none;fillColor=none;" vertex="1" parent="1">
          <mxGeometry x="605" y="488" width="30" height="30" as="geometry" />
        </mxCell>
        <mxCell id="5ih0zI0dsJdmYs3tvsHG-40" value="1" style="text;html=1;align=center;verticalAlign=middle;resizable=0;points=[];autosize=1;strokeColor=none;fillColor=none;" vertex="1" parent="1">
          <mxGeometry x="655" y="308" width="30" height="30" as="geometry" />
        </mxCell>
        <mxCell id="5ih0zI0dsJdmYs3tvsHG-41" value="n" style="text;html=1;align=center;verticalAlign=middle;resizable=0;points=[];autosize=1;strokeColor=none;fillColor=none;" vertex="1" parent="1">
          <mxGeometry x="615" y="308" width="30" height="30" as="geometry" />
        </mxCell>
      </root>
    </mxGraphModel>
  </diagram>
  <diagram name="UI-Design (Schüler)" id="0tZwTaQ0TE6JwR8SAQDU">
    <mxGraphModel dx="983" dy="1705" grid="1" gridSize="10" guides="1" tooltips="1" connect="1" arrows="0" fold="1" page="1" pageScale="1" pageWidth="827" pageHeight="1169" math="0" shadow="0">
      <root>
        <mxCell id="0" />
        <mxCell id="1" parent="0" />
        <mxCell id="uc2zKOj3P_mQ2H-by9QA-14" value="" style="group" parent="1" vertex="1" connectable="0">
          <mxGeometry x="40" y="-120" width="760" height="50" as="geometry" />
        </mxCell>
        <mxCell id="uc2zKOj3P_mQ2H-by9QA-15" value="" style="rounded=1;whiteSpace=wrap;html=1;fillColor=#f5f5f5;gradientColor=#b3b3b3;strokeColor=#666666;container=0;" parent="uc2zKOj3P_mQ2H-by9QA-14" vertex="1">
          <mxGeometry width="760" height="50" as="geometry" />
        </mxCell>
        <mxCell id="uc2zKOj3P_mQ2H-by9QA-20" value="Kurse" style="rounded=1;align=left;fillColor=#F1F2F4;strokeColor=none;html=1;fontColor=#596780;fontSize=12;spacingLeft=26;container=0;" parent="uc2zKOj3P_mQ2H-by9QA-14" vertex="1">
          <mxGeometry x="461" y="10.25" width="120" height="33" as="geometry" />
        </mxCell>
        <mxCell id="uc2zKOj3P_mQ2H-by9QA-24" value="&lt;h2&gt;&lt;font face=&quot;Comic Sans MS&quot;&gt;&lt;i&gt;SkillHub&lt;/i&gt;&lt;/font&gt;&lt;/h2&gt;" style="text;html=1;align=center;verticalAlign=middle;whiteSpace=wrap;rounded=0;container=0;" parent="uc2zKOj3P_mQ2H-by9QA-14" vertex="1">
          <mxGeometry x="10" y="10" width="100" height="30" as="geometry" />
        </mxCell>
        <mxCell id="syP1I1rsf_1b_ioC_OM6-1" value="Profil" style="html=1;shadow=0;dashed=0;shape=mxgraph.bootstrap.rrect;rSize=5;strokeColor=none;strokeWidth=1;fillColor=#6C767D;fontColor=#ffffff;whiteSpace=wrap;align=right;verticalAlign=middle;fontStyle=0;fontSize=14;spacingLeft=10;spacingRight=20;" vertex="1" parent="uc2zKOj3P_mQ2H-by9QA-14">
          <mxGeometry x="597.5" y="5" width="155" height="40" as="geometry" />
        </mxCell>
        <mxCell id="syP1I1rsf_1b_ioC_OM6-2" value="" style="shape=triangle;direction=south;fillColor=#ffffff;strokeColor=none;perimeter=none;" vertex="1" parent="syP1I1rsf_1b_ioC_OM6-1">
          <mxGeometry x="1" y="0.5" width="10" height="5" relative="1" as="geometry">
            <mxPoint x="-17" y="-2.5" as="offset" />
          </mxGeometry>
        </mxCell>
        <mxCell id="uc2zKOj3P_mQ2H-by9QA-17" value="" style="html=1;verticalLabelPosition=bottom;align=center;labelBackgroundColor=#ffffff;verticalAlign=top;strokeWidth=2;strokeColor=#0080F0;shadow=0;dashed=0;shape=mxgraph.ios7.icons.user;container=0;" parent="syP1I1rsf_1b_ioC_OM6-1" vertex="1">
          <mxGeometry x="12.5" y="5" width="30" height="30" as="geometry" />
        </mxCell>
        <mxCell id="syP1I1rsf_1b_ioC_OM6-10" value="Location Management" style="rounded=1;align=left;fillColor=#F1F2F4;strokeColor=none;html=1;fontColor=#596780;fontSize=12;spacingLeft=26;container=0;" vertex="1" parent="uc2zKOj3P_mQ2H-by9QA-14">
          <mxGeometry x="280" y="12" width="160" height="33" as="geometry" />
        </mxCell>
        <mxCell id="syP1I1rsf_1b_ioC_OM6-11" value="Benutzer" style="rounded=1;align=left;fillColor=#F1F2F4;strokeColor=none;html=1;fontColor=#596780;fontSize=12;spacingLeft=26;container=0;" vertex="1" parent="uc2zKOj3P_mQ2H-by9QA-14">
          <mxGeometry x="140" y="12" width="120" height="33" as="geometry" />
        </mxCell>
        <mxCell id="syP1I1rsf_1b_ioC_OM6-3" value="" style="swimlane;container=1;shape=mxgraph.bootstrap.rrect;rSize=5;strokeColor=#999999;fillColor=#ffffff;fontStyle=0;childLayout=stackLayout;horizontal=1;startSize=0;horizontalStack=0;resizeParent=1;resizeParentMax=0;resizeLast=0;collapsible=0;marginBottom=0;whiteSpace=wrap;html=1;" vertex="1" parent="1">
          <mxGeometry x="630" y="-70" width="170" height="110" as="geometry" />
        </mxCell>
        <mxCell id="syP1I1rsf_1b_ioC_OM6-4" value="" style="text;align=center;verticalAlign=middle;spacingLeft=10;spacingRight=10;overflow=hidden;points=[[0,0.5],[1,0.5]];portConstraint=eastwest;rotatable=0;whiteSpace=wrap;html=1;fontColor=inherit;" vertex="1" parent="syP1I1rsf_1b_ioC_OM6-3">
          <mxGeometry width="170" height="10" as="geometry" />
        </mxCell>
        <mxCell id="syP1I1rsf_1b_ioC_OM6-5" value="Meine Kurse" style="text;align=left;verticalAlign=middle;spacingLeft=10;spacingRight=10;overflow=hidden;points=[[0,0.5],[1,0.5]];portConstraint=eastwest;rotatable=0;whiteSpace=wrap;html=1;fontColor=inherit;fontSize=14;fontStyle=0;" vertex="1" parent="syP1I1rsf_1b_ioC_OM6-3">
          <mxGeometry y="10" width="170" height="30" as="geometry" />
        </mxCell>
        <mxCell id="syP1I1rsf_1b_ioC_OM6-7" value="Konfiguration" style="text;align=left;verticalAlign=middle;spacingLeft=10;spacingRight=10;overflow=hidden;points=[[0,0.5],[1,0.5]];portConstraint=eastwest;rotatable=0;whiteSpace=wrap;html=1;fontColor=inherit;fontSize=14;fontStyle=0;" vertex="1" parent="syP1I1rsf_1b_ioC_OM6-3">
          <mxGeometry y="40" width="170" height="30" as="geometry" />
        </mxCell>
        <mxCell id="syP1I1rsf_1b_ioC_OM6-9" value="Logout" style="text;align=left;verticalAlign=middle;spacingLeft=10;spacingRight=10;overflow=hidden;points=[[0,0.5],[1,0.5]];portConstraint=eastwest;rotatable=0;whiteSpace=wrap;html=1;fontColor=inherit;fontSize=14;fontStyle=0;" vertex="1" parent="syP1I1rsf_1b_ioC_OM6-3">
          <mxGeometry y="70" width="170" height="30" as="geometry" />
        </mxCell>
        <mxCell id="syP1I1rsf_1b_ioC_OM6-8" value="" style="text;align=center;verticalAlign=middle;spacingLeft=10;spacingRight=10;overflow=hidden;points=[[0,0.5],[1,0.5]];portConstraint=eastwest;rotatable=0;whiteSpace=wrap;html=1;fontColor=inherit;" vertex="1" parent="syP1I1rsf_1b_ioC_OM6-3">
          <mxGeometry y="100" width="170" height="10" as="geometry" />
        </mxCell>
        <mxCell id="syP1I1rsf_1b_ioC_OM6-12" value="" style="rounded=0;whiteSpace=wrap;html=1;fillColor=#f5f5f5;gradientColor=#b3b3b3;strokeColor=#666666;" vertex="1" parent="1">
          <mxGeometry x="40" y="120" width="760" height="130" as="geometry" />
        </mxCell>
        <mxCell id="syP1I1rsf_1b_ioC_OM6-13" value="Telefonnummer&lt;div&gt;Email-Adresse&lt;/div&gt;" style="rounded=0;whiteSpace=wrap;html=1;fillColor=none;strokeWidth=1;" vertex="1" parent="1">
          <mxGeometry x="40" y="120" width="490" height="70" as="geometry" />
        </mxCell>
        <mxCell id="syP1I1rsf_1b_ioC_OM6-14" value="Adresse" style="rounded=0;whiteSpace=wrap;html=1;fillColor=none;strokeWidth=1;" vertex="1" parent="1">
          <mxGeometry x="40" y="190" width="490" height="60" as="geometry" />
        </mxCell>
        <mxCell id="syP1I1rsf_1b_ioC_OM6-15" value="Öffnungszeiten" style="rounded=0;whiteSpace=wrap;html=1;fillColor=none;strokeWidth=1;" vertex="1" parent="1">
          <mxGeometry x="530" y="120" width="270" height="130" as="geometry" />
        </mxCell>
        <mxCell id="syP1I1rsf_1b_ioC_OM6-16" value="Header" style="text;html=1;align=center;verticalAlign=middle;resizable=0;points=[];autosize=1;strokeColor=#6c8ebf;fillColor=#dae8fc;gradientColor=#7ea6e0;" vertex="1" parent="1">
          <mxGeometry x="45" y="-150" width="60" height="30" as="geometry" />
        </mxCell>
        <mxCell id="syP1I1rsf_1b_ioC_OM6-17" value="Footer" style="text;html=1;align=center;verticalAlign=middle;resizable=0;points=[];autosize=1;strokeColor=#6c8ebf;fillColor=#dae8fc;gradientColor=#7ea6e0;" vertex="1" parent="1">
          <mxGeometry x="40" y="90" width="60" height="30" as="geometry" />
        </mxCell>
        <mxCell id="syP1I1rsf_1b_ioC_OM6-18" value="" style="rounded=0;whiteSpace=wrap;html=1;fillColor=#f5f5f5;gradientColor=#b3b3b3;strokeColor=#666666;" vertex="1" parent="1">
          <mxGeometry x="40" y="360" width="640" height="270" as="geometry" />
        </mxCell>
        <mxCell id="syP1I1rsf_1b_ioC_OM6-19" value="" style="rounded=0;whiteSpace=wrap;html=1;fillColor=#f5f5f5;gradientColor=#b3b3b3;strokeColor=#666666;" vertex="1" parent="1">
          <mxGeometry x="40" y="1960" width="760" height="310" as="geometry" />
        </mxCell>
        <mxCell id="syP1I1rsf_1b_ioC_OM6-20" value="" style="rounded=0;whiteSpace=wrap;html=1;" vertex="1" parent="1">
          <mxGeometry x="230" y="400" width="240" height="200" as="geometry" />
        </mxCell>
        <mxCell id="syP1I1rsf_1b_ioC_OM6-22" value="Kurse" style="text;html=1;align=center;verticalAlign=middle;resizable=0;points=[];autosize=1;fillColor=#dae8fc;gradientColor=#7ea6e0;strokeColor=#6c8ebf;" vertex="1" parent="1">
          <mxGeometry x="40" y="330" width="50" height="30" as="geometry" />
        </mxCell>
        <mxCell id="syP1I1rsf_1b_ioC_OM6-23" value="Trainer" style="text;html=1;align=center;verticalAlign=middle;resizable=0;points=[];autosize=1;strokeColor=none;fillColor=none;" vertex="1" parent="1">
          <mxGeometry x="320" y="470" width="60" height="30" as="geometry" />
        </mxCell>
        <mxCell id="syP1I1rsf_1b_ioC_OM6-24" value="" style="rounded=1;whiteSpace=wrap;html=1;strokeWidth=2;fillWeight=4;hachureGap=8;hachureAngle=45;fillColor=#1ba1e2;sketch=1;" vertex="1" parent="1">
          <mxGeometry x="250" y="410" width="200" height="60" as="geometry" />
        </mxCell>
        <mxCell id="syP1I1rsf_1b_ioC_OM6-25" value="Kurs Details" style="text;html=1;align=center;verticalAlign=middle;resizable=0;points=[];autosize=1;strokeColor=none;fillColor=none;" vertex="1" parent="1">
          <mxGeometry x="239" y="500" width="90" height="30" as="geometry" />
        </mxCell>
        <mxCell id="syP1I1rsf_1b_ioC_OM6-26" value="Zeitplan" style="text;html=1;align=center;verticalAlign=middle;resizable=0;points=[];autosize=1;strokeColor=none;fillColor=none;" vertex="1" parent="1">
          <mxGeometry x="249" y="530" width="70" height="30" as="geometry" />
        </mxCell>
        <mxCell id="syP1I1rsf_1b_ioC_OM6-27" value="Registrieren" style="rounded=1;html=1;shadow=0;dashed=0;whiteSpace=wrap;fontSize=10;fillColor=#666666;align=center;strokeColor=#4D4D4D;fontColor=#ffffff;" vertex="1" parent="1">
          <mxGeometry x="297.25" y="570" width="105.5" height="16.88" as="geometry" />
        </mxCell>
        <mxCell id="syP1I1rsf_1b_ioC_OM6-28" value="" style="shape=flexArrow;endArrow=classic;html=1;rounded=0;" edge="1" parent="1">
          <mxGeometry width="50" height="50" relative="1" as="geometry">
            <mxPoint x="500" y="490" as="sourcePoint" />
            <mxPoint x="540" y="490" as="targetPoint" />
          </mxGeometry>
        </mxCell>
        <mxCell id="syP1I1rsf_1b_ioC_OM6-29" value="" style="shape=flexArrow;endArrow=classic;html=1;rounded=0;" edge="1" parent="1">
          <mxGeometry width="50" height="50" relative="1" as="geometry">
            <mxPoint x="200" y="499" as="sourcePoint" />
            <mxPoint x="160" y="499" as="targetPoint" />
          </mxGeometry>
        </mxCell>
        <mxCell id="syP1I1rsf_1b_ioC_OM6-30" value="Meine Kurse" style="text;html=1;align=center;verticalAlign=middle;resizable=0;points=[];autosize=1;fillColor=#dae8fc;gradientColor=#7ea6e0;strokeColor=#6c8ebf;" vertex="1" parent="1">
          <mxGeometry x="100" y="330" width="90" height="30" as="geometry" />
        </mxCell>
        <mxCell id="syP1I1rsf_1b_ioC_OM6-31" value="Neuen Kurs erstellem" style="text;html=1;align=center;verticalAlign=middle;whiteSpace=wrap;rounded=1;fillColor=#dae8fc;strokeColor=#6c8ebf;arcSize=50;" vertex="1" parent="1">
          <mxGeometry x="540" y="380" width="130" height="30" as="geometry" />
        </mxCell>
        <mxCell id="syP1I1rsf_1b_ioC_OM6-32" value="" style="rounded=0;whiteSpace=wrap;html=1;fillColor=#f5f5f5;gradientColor=#b3b3b3;strokeColor=#666666;" vertex="1" parent="1">
          <mxGeometry x="40" y="740" width="620" height="530" as="geometry" />
        </mxCell>
        <mxCell id="syP1I1rsf_1b_ioC_OM6-34" value="Konfiguration" style="text;html=1;align=center;verticalAlign=middle;resizable=0;points=[];autosize=1;fillColor=#dae8fc;gradientColor=#7ea6e0;strokeColor=#6c8ebf;" vertex="1" parent="1">
          <mxGeometry x="40" y="710" width="90" height="30" as="geometry" />
        </mxCell>
        <mxCell id="syP1I1rsf_1b_ioC_OM6-36" value="" style="rounded=0;whiteSpace=wrap;html=1;" vertex="1" parent="1">
          <mxGeometry x="207" y="760" width="286" height="490" as="geometry" />
        </mxCell>
        <mxCell id="syP1I1rsf_1b_ioC_OM6-37" value="Informationen zum Unternehmen" style="text;html=1;align=center;verticalAlign=middle;resizable=0;points=[];autosize=1;strokeColor=none;fillColor=none;" vertex="1" parent="1">
          <mxGeometry x="207" y="770" width="200" height="30" as="geometry" />
        </mxCell>
        <mxCell id="syP1I1rsf_1b_ioC_OM6-38" value="&lt;i&gt;Name des Unternehmens&lt;/i&gt;" style="rounded=0;whiteSpace=wrap;html=1;fillColor=#eeeeee;strokeColor=#36393d;align=left;" vertex="1" parent="1">
          <mxGeometry x="220" y="810" width="250" height="30" as="geometry" />
        </mxCell>
        <mxCell id="syP1I1rsf_1b_ioC_OM6-39" value="&lt;i&gt;Telefon&lt;/i&gt;" style="rounded=0;whiteSpace=wrap;html=1;fillColor=#eeeeee;strokeColor=#36393d;align=left;" vertex="1" parent="1">
          <mxGeometry x="220" y="850" width="250" height="30" as="geometry" />
        </mxCell>
        <mxCell id="syP1I1rsf_1b_ioC_OM6-40" value="&lt;i&gt;Email&lt;/i&gt;" style="rounded=0;whiteSpace=wrap;html=1;fillColor=#eeeeee;strokeColor=#36393d;align=left;" vertex="1" parent="1">
          <mxGeometry x="220" y="890" width="250" height="30" as="geometry" />
        </mxCell>
        <mxCell id="syP1I1rsf_1b_ioC_OM6-41" value="&lt;i&gt;Straße&lt;/i&gt;" style="rounded=0;whiteSpace=wrap;html=1;fillColor=#eeeeee;strokeColor=#36393d;align=left;" vertex="1" parent="1">
          <mxGeometry x="220" y="930" width="160" height="30" as="geometry" />
        </mxCell>
        <mxCell id="syP1I1rsf_1b_ioC_OM6-42" value="&lt;i&gt;Hausnummer&lt;/i&gt;" style="rounded=0;whiteSpace=wrap;html=1;fillColor=#eeeeee;strokeColor=#36393d;align=left;" vertex="1" parent="1">
          <mxGeometry x="390" y="930" width="80" height="30" as="geometry" />
        </mxCell>
        <mxCell id="syP1I1rsf_1b_ioC_OM6-43" value="&lt;i&gt;PLZ&lt;/i&gt;" style="rounded=0;whiteSpace=wrap;html=1;fillColor=#eeeeee;strokeColor=#36393d;align=left;" vertex="1" parent="1">
          <mxGeometry x="390" y="970" width="80" height="30" as="geometry" />
        </mxCell>
        <mxCell id="syP1I1rsf_1b_ioC_OM6-44" value="&lt;i&gt;Ort&lt;/i&gt;" style="rounded=0;whiteSpace=wrap;html=1;fillColor=#eeeeee;strokeColor=#36393d;align=left;" vertex="1" parent="1">
          <mxGeometry x="220" y="970" width="160" height="30" as="geometry" />
        </mxCell>
        <mxCell id="syP1I1rsf_1b_ioC_OM6-45" value="Öfnungszeit" style="fillColor=none;strokeColor=none;html=1;fontColor=#0057D8;align=left;fontSize=12;sketch=0;" vertex="1" parent="1">
          <mxGeometry x="235" y="1020" width="75" height="33" as="geometry" />
        </mxCell>
        <mxCell id="syP1I1rsf_1b_ioC_OM6-46" value="" style="html=1;shadow=0;dashed=0;shape=mxgraph.atlassian.close;fillColor=#BA3200;strokeColor=none;html=1;sketch=0;" vertex="1" parent="1">
          <mxGeometry x="220" y="1029.5" width="14" height="14" as="geometry" />
        </mxCell>
        <mxCell id="syP1I1rsf_1b_ioC_OM6-47" value="Öfnungszeit" style="fillColor=none;strokeColor=none;html=1;fontColor=#0057D8;align=left;fontSize=12;sketch=0;" vertex="1" parent="1">
          <mxGeometry x="330" y="1020" width="75" height="33" as="geometry" />
        </mxCell>
        <mxCell id="syP1I1rsf_1b_ioC_OM6-48" value="" style="html=1;shadow=0;dashed=0;shape=mxgraph.atlassian.close;fillColor=#BA3200;strokeColor=none;html=1;sketch=0;" vertex="1" parent="1">
          <mxGeometry x="315" y="1029.5" width="14" height="14" as="geometry" />
        </mxCell>
        <mxCell id="syP1I1rsf_1b_ioC_OM6-49" value="Öfnungszeiten" style="text;html=1;align=left;verticalAlign=middle;resizable=0;points=[];autosize=1;strokeColor=none;fillColor=none;" vertex="1" parent="1">
          <mxGeometry x="219" y="1070" width="100" height="30" as="geometry" />
        </mxCell>
        <mxCell id="syP1I1rsf_1b_ioC_OM6-50" value="&lt;i&gt;Tag&lt;/i&gt;" style="rounded=0;whiteSpace=wrap;html=1;fillColor=#eeeeee;strokeColor=#36393d;align=left;" vertex="1" parent="1">
          <mxGeometry x="225" y="1110" width="250" height="30" as="geometry" />
        </mxCell>
        <mxCell id="syP1I1rsf_1b_ioC_OM6-51" value="&lt;i&gt;Startzeit&lt;/i&gt;" style="rounded=0;whiteSpace=wrap;html=1;fillColor=#eeeeee;strokeColor=#36393d;align=left;" vertex="1" parent="1">
          <mxGeometry x="225" y="1150" width="250" height="30" as="geometry" />
        </mxCell>
        <mxCell id="syP1I1rsf_1b_ioC_OM6-52" value="&lt;i&gt;Endzeit&lt;/i&gt;" style="rounded=0;whiteSpace=wrap;html=1;fillColor=#eeeeee;strokeColor=#36393d;align=left;" vertex="1" parent="1">
          <mxGeometry x="225" y="1190" width="250" height="30" as="geometry" />
        </mxCell>
        <mxCell id="syP1I1rsf_1b_ioC_OM6-53" value="" style="rounded=0;whiteSpace=wrap;html=1;fillColor=#f5f5f5;gradientColor=#b3b3b3;strokeColor=#666666;" vertex="1" parent="1">
          <mxGeometry x="40" y="1380" width="760" height="490" as="geometry" />
        </mxCell>
        <mxCell id="syP1I1rsf_1b_ioC_OM6-54" value="Benutzer" style="text;html=1;align=center;verticalAlign=middle;resizable=0;points=[];autosize=1;fillColor=#dae8fc;gradientColor=#7ea6e0;strokeColor=#6c8ebf;" vertex="1" parent="1">
          <mxGeometry x="40" y="1350" width="70" height="30" as="geometry" />
        </mxCell>
        <mxCell id="syP1I1rsf_1b_ioC_OM6-55" value="" style="rounded=0;whiteSpace=wrap;html=1;" vertex="1" parent="1">
          <mxGeometry x="65" y="1430" width="710" height="110" as="geometry" />
        </mxCell>
        <mxCell id="syP1I1rsf_1b_ioC_OM6-56" value="Table" style="shape=table;startSize=30;container=1;collapsible=0;childLayout=tableLayout;strokeColor=default;fontSize=16;" vertex="1" parent="1">
          <mxGeometry x="69" y="1480" width="700" height="55" as="geometry" />
        </mxCell>
        <mxCell id="syP1I1rsf_1b_ioC_OM6-57" value="" style="shape=tableRow;horizontal=0;startSize=0;swimlaneHead=0;swimlaneBody=0;strokeColor=inherit;top=0;left=0;bottom=0;right=0;collapsible=0;dropTarget=0;fillColor=none;points=[[0,0.5],[1,0.5]];portConstraint=eastwest;fontSize=16;" vertex="1" parent="syP1I1rsf_1b_ioC_OM6-56">
          <mxGeometry y="30" width="700" height="25" as="geometry" />
        </mxCell>
        <mxCell id="syP1I1rsf_1b_ioC_OM6-58" value="Keyacloak ID" style="shape=partialRectangle;html=1;whiteSpace=wrap;connectable=0;strokeColor=inherit;overflow=hidden;fillColor=none;top=0;left=0;bottom=0;right=0;pointerEvents=1;fontSize=16;" vertex="1" parent="syP1I1rsf_1b_ioC_OM6-57">
          <mxGeometry width="175" height="25" as="geometry">
            <mxRectangle width="175" height="25" as="alternateBounds" />
          </mxGeometry>
        </mxCell>
        <mxCell id="syP1I1rsf_1b_ioC_OM6-59" value="Benutzername" style="shape=partialRectangle;html=1;whiteSpace=wrap;connectable=0;strokeColor=inherit;overflow=hidden;fillColor=none;top=0;left=0;bottom=0;right=0;pointerEvents=1;fontSize=16;" vertex="1" parent="syP1I1rsf_1b_ioC_OM6-57">
          <mxGeometry x="175" width="175" height="25" as="geometry">
            <mxRectangle width="175" height="25" as="alternateBounds" />
          </mxGeometry>
        </mxCell>
        <mxCell id="syP1I1rsf_1b_ioC_OM6-60" value="Name" style="shape=partialRectangle;html=1;whiteSpace=wrap;connectable=0;strokeColor=inherit;overflow=hidden;fillColor=none;top=0;left=0;bottom=0;right=0;pointerEvents=1;fontSize=16;" vertex="1" parent="syP1I1rsf_1b_ioC_OM6-57">
          <mxGeometry x="350" width="175" height="25" as="geometry">
            <mxRectangle width="175" height="25" as="alternateBounds" />
          </mxGeometry>
        </mxCell>
        <mxCell id="syP1I1rsf_1b_ioC_OM6-69" value="Email" style="shape=partialRectangle;html=1;whiteSpace=wrap;connectable=0;strokeColor=inherit;overflow=hidden;fillColor=none;top=0;left=0;bottom=0;right=0;pointerEvents=1;fontSize=16;" vertex="1" parent="syP1I1rsf_1b_ioC_OM6-57">
          <mxGeometry x="525" width="175" height="25" as="geometry">
            <mxRectangle width="175" height="25" as="alternateBounds" />
          </mxGeometry>
        </mxCell>
        <mxCell id="syP1I1rsf_1b_ioC_OM6-70" value="&lt;i&gt;Filter&lt;/i&gt;" style="rounded=0;whiteSpace=wrap;html=1;fillColor=#eeeeee;strokeColor=#36393d;align=left;" vertex="1" parent="1">
          <mxGeometry x="70" y="1440" width="250" height="30" as="geometry" />
        </mxCell>
        <mxCell id="syP1I1rsf_1b_ioC_OM6-71" value="Nicht zugewiesene Benutzer" style="text;html=1;align=center;verticalAlign=middle;resizable=0;points=[];autosize=1;strokeColor=none;fillColor=none;" vertex="1" parent="1">
          <mxGeometry x="65" y="1400" width="180" height="30" as="geometry" />
        </mxCell>
        <mxCell id="syP1I1rsf_1b_ioC_OM6-72" value="" style="rounded=0;whiteSpace=wrap;html=1;" vertex="1" parent="1">
          <mxGeometry x="65" y="1600" width="710" height="110" as="geometry" />
        </mxCell>
        <mxCell id="syP1I1rsf_1b_ioC_OM6-73" value="Table" style="shape=table;startSize=30;container=1;collapsible=0;childLayout=tableLayout;strokeColor=default;fontSize=16;" vertex="1" parent="1">
          <mxGeometry x="69" y="1650" width="700" height="55" as="geometry" />
        </mxCell>
        <mxCell id="syP1I1rsf_1b_ioC_OM6-74" value="" style="shape=tableRow;horizontal=0;startSize=0;swimlaneHead=0;swimlaneBody=0;strokeColor=inherit;top=0;left=0;bottom=0;right=0;collapsible=0;dropTarget=0;fillColor=none;points=[[0,0.5],[1,0.5]];portConstraint=eastwest;fontSize=16;" vertex="1" parent="syP1I1rsf_1b_ioC_OM6-73">
          <mxGeometry y="30" width="700" height="25" as="geometry" />
        </mxCell>
        <mxCell id="syP1I1rsf_1b_ioC_OM6-75" value="Keyacloak ID" style="shape=partialRectangle;html=1;whiteSpace=wrap;connectable=0;strokeColor=inherit;overflow=hidden;fillColor=none;top=0;left=0;bottom=0;right=0;pointerEvents=1;fontSize=16;" vertex="1" parent="syP1I1rsf_1b_ioC_OM6-74">
          <mxGeometry width="175" height="25" as="geometry">
            <mxRectangle width="175" height="25" as="alternateBounds" />
          </mxGeometry>
        </mxCell>
        <mxCell id="syP1I1rsf_1b_ioC_OM6-76" value="Benutzername" style="shape=partialRectangle;html=1;whiteSpace=wrap;connectable=0;strokeColor=inherit;overflow=hidden;fillColor=none;top=0;left=0;bottom=0;right=0;pointerEvents=1;fontSize=16;" vertex="1" parent="syP1I1rsf_1b_ioC_OM6-74">
          <mxGeometry x="175" width="175" height="25" as="geometry">
            <mxRectangle width="175" height="25" as="alternateBounds" />
          </mxGeometry>
        </mxCell>
        <mxCell id="syP1I1rsf_1b_ioC_OM6-77" value="Name" style="shape=partialRectangle;html=1;whiteSpace=wrap;connectable=0;strokeColor=inherit;overflow=hidden;fillColor=none;top=0;left=0;bottom=0;right=0;pointerEvents=1;fontSize=16;" vertex="1" parent="syP1I1rsf_1b_ioC_OM6-74">
          <mxGeometry x="350" width="175" height="25" as="geometry">
            <mxRectangle width="175" height="25" as="alternateBounds" />
          </mxGeometry>
        </mxCell>
        <mxCell id="syP1I1rsf_1b_ioC_OM6-78" value="Status" style="shape=partialRectangle;html=1;whiteSpace=wrap;connectable=0;strokeColor=inherit;overflow=hidden;fillColor=none;top=0;left=0;bottom=0;right=0;pointerEvents=1;fontSize=16;" vertex="1" parent="syP1I1rsf_1b_ioC_OM6-74">
          <mxGeometry x="525" width="175" height="25" as="geometry">
            <mxRectangle width="175" height="25" as="alternateBounds" />
          </mxGeometry>
        </mxCell>
        <mxCell id="syP1I1rsf_1b_ioC_OM6-79" value="&lt;i&gt;Filter&lt;/i&gt;" style="rounded=0;whiteSpace=wrap;html=1;fillColor=#eeeeee;strokeColor=#36393d;align=left;" vertex="1" parent="1">
          <mxGeometry x="70" y="1610" width="250" height="30" as="geometry" />
        </mxCell>
        <mxCell id="syP1I1rsf_1b_ioC_OM6-80" value="Trainer" style="text;html=1;align=center;verticalAlign=middle;resizable=0;points=[];autosize=1;strokeColor=none;fillColor=none;" vertex="1" parent="1">
          <mxGeometry x="70" y="1570" width="60" height="30" as="geometry" />
        </mxCell>
        <mxCell id="syP1I1rsf_1b_ioC_OM6-81" value="" style="rounded=0;whiteSpace=wrap;html=1;" vertex="1" parent="1">
          <mxGeometry x="65" y="1750" width="710" height="110" as="geometry" />
        </mxCell>
        <mxCell id="syP1I1rsf_1b_ioC_OM6-82" value="Table" style="shape=table;startSize=30;container=1;collapsible=0;childLayout=tableLayout;strokeColor=default;fontSize=16;" vertex="1" parent="1">
          <mxGeometry x="69" y="1800" width="700" height="55" as="geometry" />
        </mxCell>
        <mxCell id="syP1I1rsf_1b_ioC_OM6-83" value="" style="shape=tableRow;horizontal=0;startSize=0;swimlaneHead=0;swimlaneBody=0;strokeColor=inherit;top=0;left=0;bottom=0;right=0;collapsible=0;dropTarget=0;fillColor=none;points=[[0,0.5],[1,0.5]];portConstraint=eastwest;fontSize=16;" vertex="1" parent="syP1I1rsf_1b_ioC_OM6-82">
          <mxGeometry y="30" width="700" height="25" as="geometry" />
        </mxCell>
        <mxCell id="syP1I1rsf_1b_ioC_OM6-84" value="Keyacloak ID" style="shape=partialRectangle;html=1;whiteSpace=wrap;connectable=0;strokeColor=inherit;overflow=hidden;fillColor=none;top=0;left=0;bottom=0;right=0;pointerEvents=1;fontSize=16;" vertex="1" parent="syP1I1rsf_1b_ioC_OM6-83">
          <mxGeometry width="175" height="25" as="geometry">
            <mxRectangle width="175" height="25" as="alternateBounds" />
          </mxGeometry>
        </mxCell>
        <mxCell id="syP1I1rsf_1b_ioC_OM6-85" value="Benutzername" style="shape=partialRectangle;html=1;whiteSpace=wrap;connectable=0;strokeColor=inherit;overflow=hidden;fillColor=none;top=0;left=0;bottom=0;right=0;pointerEvents=1;fontSize=16;" vertex="1" parent="syP1I1rsf_1b_ioC_OM6-83">
          <mxGeometry x="175" width="175" height="25" as="geometry">
            <mxRectangle width="175" height="25" as="alternateBounds" />
          </mxGeometry>
        </mxCell>
        <mxCell id="syP1I1rsf_1b_ioC_OM6-86" value="Name" style="shape=partialRectangle;html=1;whiteSpace=wrap;connectable=0;strokeColor=inherit;overflow=hidden;fillColor=none;top=0;left=0;bottom=0;right=0;pointerEvents=1;fontSize=16;" vertex="1" parent="syP1I1rsf_1b_ioC_OM6-83">
          <mxGeometry x="350" width="175" height="25" as="geometry">
            <mxRectangle width="175" height="25" as="alternateBounds" />
          </mxGeometry>
        </mxCell>
        <mxCell id="syP1I1rsf_1b_ioC_OM6-87" value="Email" style="shape=partialRectangle;html=1;whiteSpace=wrap;connectable=0;strokeColor=inherit;overflow=hidden;fillColor=none;top=0;left=0;bottom=0;right=0;pointerEvents=1;fontSize=16;" vertex="1" parent="syP1I1rsf_1b_ioC_OM6-83">
          <mxGeometry x="525" width="175" height="25" as="geometry">
            <mxRectangle width="175" height="25" as="alternateBounds" />
          </mxGeometry>
        </mxCell>
        <mxCell id="syP1I1rsf_1b_ioC_OM6-88" value="&lt;i&gt;Filter&lt;/i&gt;" style="rounded=0;whiteSpace=wrap;html=1;fillColor=#eeeeee;strokeColor=#36393d;align=left;" vertex="1" parent="1">
          <mxGeometry x="70" y="1760" width="250" height="30" as="geometry" />
        </mxCell>
        <mxCell id="syP1I1rsf_1b_ioC_OM6-89" value="Teilnehmer" style="text;html=1;align=center;verticalAlign=middle;resizable=0;points=[];autosize=1;strokeColor=none;fillColor=none;" vertex="1" parent="1">
          <mxGeometry x="65" y="1720" width="80" height="30" as="geometry" />
        </mxCell>
        <mxCell id="syP1I1rsf_1b_ioC_OM6-90" value="Location Management" style="text;html=1;align=center;verticalAlign=middle;resizable=0;points=[];autosize=1;fillColor=#dae8fc;gradientColor=#7ea6e0;strokeColor=#6c8ebf;" vertex="1" parent="1">
          <mxGeometry x="40" y="1930" width="140" height="30" as="geometry" />
        </mxCell>
        <mxCell id="syP1I1rsf_1b_ioC_OM6-91" value="" style="rounded=0;whiteSpace=wrap;html=1;" vertex="1" parent="1">
          <mxGeometry x="60" y="1980" width="710" height="140" as="geometry" />
        </mxCell>
        <mxCell id="syP1I1rsf_1b_ioC_OM6-92" value="" style="rounded=0;whiteSpace=wrap;html=1;" vertex="1" parent="1">
          <mxGeometry x="60" y="2140" width="710" height="120" as="geometry" />
        </mxCell>
        <mxCell id="syP1I1rsf_1b_ioC_OM6-93" value="Table" style="shape=table;startSize=30;container=1;collapsible=0;childLayout=tableLayout;strokeColor=default;fontSize=16;" vertex="1" parent="1">
          <mxGeometry x="65" y="2180" width="705" height="55" as="geometry" />
        </mxCell>
        <mxCell id="syP1I1rsf_1b_ioC_OM6-94" value="" style="shape=tableRow;horizontal=0;startSize=0;swimlaneHead=0;swimlaneBody=0;strokeColor=inherit;top=0;left=0;bottom=0;right=0;collapsible=0;dropTarget=0;fillColor=none;points=[[0,0.5],[1,0.5]];portConstraint=eastwest;fontSize=16;" vertex="1" parent="syP1I1rsf_1b_ioC_OM6-93">
          <mxGeometry y="30" width="705" height="25" as="geometry" />
        </mxCell>
        <mxCell id="syP1I1rsf_1b_ioC_OM6-95" value="Name" style="shape=partialRectangle;html=1;whiteSpace=wrap;connectable=0;strokeColor=inherit;overflow=hidden;fillColor=none;top=0;left=0;bottom=0;right=0;pointerEvents=1;fontSize=16;" vertex="1" parent="syP1I1rsf_1b_ioC_OM6-94">
          <mxGeometry width="84" height="25" as="geometry">
            <mxRectangle width="84" height="25" as="alternateBounds" />
          </mxGeometry>
        </mxCell>
        <mxCell id="syP1I1rsf_1b_ioC_OM6-96" value="Kapazität" style="shape=partialRectangle;html=1;whiteSpace=wrap;connectable=0;strokeColor=inherit;overflow=hidden;fillColor=none;top=0;left=0;bottom=0;right=0;pointerEvents=1;fontSize=16;" vertex="1" parent="syP1I1rsf_1b_ioC_OM6-94">
          <mxGeometry x="84" width="81" height="25" as="geometry">
            <mxRectangle width="81" height="25" as="alternateBounds" />
          </mxGeometry>
        </mxCell>
        <mxCell id="syP1I1rsf_1b_ioC_OM6-97" value="Equipment" style="shape=partialRectangle;html=1;whiteSpace=wrap;connectable=0;strokeColor=inherit;overflow=hidden;fillColor=none;top=0;left=0;bottom=0;right=0;pointerEvents=1;fontSize=16;" vertex="1" parent="syP1I1rsf_1b_ioC_OM6-94">
          <mxGeometry x="165" width="250" height="25" as="geometry">
            <mxRectangle width="250" height="25" as="alternateBounds" />
          </mxGeometry>
        </mxCell>
        <mxCell id="syP1I1rsf_1b_ioC_OM6-98" value="Status" style="shape=partialRectangle;html=1;whiteSpace=wrap;connectable=0;strokeColor=inherit;overflow=hidden;fillColor=none;top=0;left=0;bottom=0;right=0;pointerEvents=1;fontSize=16;" vertex="1" parent="syP1I1rsf_1b_ioC_OM6-94">
          <mxGeometry x="415" width="70" height="25" as="geometry">
            <mxRectangle width="70" height="25" as="alternateBounds" />
          </mxGeometry>
        </mxCell>
        <mxCell id="syP1I1rsf_1b_ioC_OM6-117" style="shape=partialRectangle;html=1;whiteSpace=wrap;connectable=0;strokeColor=inherit;overflow=hidden;fillColor=none;top=0;left=0;bottom=0;right=0;pointerEvents=1;fontSize=16;" vertex="1" parent="syP1I1rsf_1b_ioC_OM6-94">
          <mxGeometry x="485" width="220" height="25" as="geometry">
            <mxRectangle width="220" height="25" as="alternateBounds" />
          </mxGeometry>
        </mxCell>
        <mxCell id="syP1I1rsf_1b_ioC_OM6-100" value="Location Liste" style="text;html=1;align=center;verticalAlign=middle;resizable=0;points=[];autosize=1;strokeColor=none;fillColor=none;" vertex="1" parent="1">
          <mxGeometry x="60" y="2150" width="100" height="30" as="geometry" />
        </mxCell>
        <mxCell id="syP1I1rsf_1b_ioC_OM6-101" value="&lt;i&gt;Name&lt;/i&gt;" style="rounded=0;whiteSpace=wrap;html=1;fillColor=#eeeeee;strokeColor=#36393d;align=left;" vertex="1" parent="1">
          <mxGeometry x="69" y="2020" width="250" height="30" as="geometry" />
        </mxCell>
        <mxCell id="syP1I1rsf_1b_ioC_OM6-102" value="Registrierung einer Location" style="text;html=1;align=center;verticalAlign=middle;resizable=0;points=[];autosize=1;strokeColor=none;fillColor=none;" vertex="1" parent="1">
          <mxGeometry x="60" y="1990" width="170" height="30" as="geometry" />
        </mxCell>
        <mxCell id="syP1I1rsf_1b_ioC_OM6-103" value="&lt;i&gt;Kapazität&lt;/i&gt;" style="rounded=0;whiteSpace=wrap;html=1;fillColor=#eeeeee;strokeColor=#36393d;align=left;" vertex="1" parent="1">
          <mxGeometry x="69" y="2060" width="250" height="30" as="geometry" />
        </mxCell>
        <mxCell id="syP1I1rsf_1b_ioC_OM6-104" value="Aktiv" style="rounded=1;fillColor=#F0F2F5;strokeColor=#D8DCE3;align=left;verticalAlign=middle;fontStyle=0;fontSize=12;labelPosition=right;verticalLabelPosition=middle;spacingLeft=10;html=1;shadow=0;dashed=0" vertex="1" parent="1">
          <mxGeometry x="168" y="2100" width="12" height="12" as="geometry" />
        </mxCell>
        <mxCell id="syP1I1rsf_1b_ioC_OM6-105" value="Equipment hinzufügen" style="rounded=1;html=1;shadow=0;dashed=0;whiteSpace=wrap;fontSize=10;fillColor=#666666;align=center;strokeColor=#4D4D4D;fontColor=#ffffff;" vertex="1" parent="1">
          <mxGeometry x="470" y="2095.12" width="105.5" height="16.88" as="geometry" />
        </mxCell>
        <mxCell id="syP1I1rsf_1b_ioC_OM6-106" value="Speichern" style="rounded=1;html=1;shadow=0;dashed=0;whiteSpace=wrap;fontSize=10;fillColor=#666666;align=center;strokeColor=#4D4D4D;fontColor=#ffffff;" vertex="1" parent="1">
          <mxGeometry x="660" y="2097.56" width="105.5" height="16.88" as="geometry" />
        </mxCell>
        <mxCell id="syP1I1rsf_1b_ioC_OM6-107" value="Equipment" style="fillColor=none;strokeColor=none;html=1;fontColor=#0057D8;align=left;fontSize=12;sketch=0;" vertex="1" parent="1">
          <mxGeometry x="355" y="2010" width="75" height="33" as="geometry" />
        </mxCell>
        <mxCell id="syP1I1rsf_1b_ioC_OM6-108" value="" style="html=1;shadow=0;dashed=0;shape=mxgraph.atlassian.close;fillColor=#BA3200;strokeColor=none;html=1;sketch=0;" vertex="1" parent="1">
          <mxGeometry x="340" y="2019.5" width="14" height="14" as="geometry" />
        </mxCell>
        <mxCell id="syP1I1rsf_1b_ioC_OM6-111" value="Equipment" style="fillColor=none;strokeColor=none;html=1;fontColor=#0057D8;align=left;fontSize=12;sketch=0;" vertex="1" parent="1">
          <mxGeometry x="455" y="2010" width="75" height="33" as="geometry" />
        </mxCell>
        <mxCell id="syP1I1rsf_1b_ioC_OM6-112" value="" style="html=1;shadow=0;dashed=0;shape=mxgraph.atlassian.close;fillColor=#BA3200;strokeColor=none;html=1;sketch=0;" vertex="1" parent="1">
          <mxGeometry x="440" y="2019.5" width="14" height="14" as="geometry" />
        </mxCell>
        <mxCell id="syP1I1rsf_1b_ioC_OM6-113" value="Equipment" style="fillColor=none;strokeColor=none;html=1;fontColor=#0057D8;align=left;fontSize=12;sketch=0;" vertex="1" parent="1">
          <mxGeometry x="555" y="2010" width="75" height="33" as="geometry" />
        </mxCell>
        <mxCell id="syP1I1rsf_1b_ioC_OM6-114" value="" style="html=1;shadow=0;dashed=0;shape=mxgraph.atlassian.close;fillColor=#BA3200;strokeColor=none;html=1;sketch=0;" vertex="1" parent="1">
          <mxGeometry x="540" y="2019.5" width="14" height="14" as="geometry" />
        </mxCell>
        <mxCell id="syP1I1rsf_1b_ioC_OM6-115" value="Equipment" style="fillColor=none;strokeColor=none;html=1;fontColor=#0057D8;align=left;fontSize=12;sketch=0;" vertex="1" parent="1">
          <mxGeometry x="655" y="2010" width="75" height="33" as="geometry" />
        </mxCell>
        <mxCell id="syP1I1rsf_1b_ioC_OM6-116" value="" style="html=1;shadow=0;dashed=0;shape=mxgraph.atlassian.close;fillColor=#BA3200;strokeColor=none;html=1;sketch=0;" vertex="1" parent="1">
          <mxGeometry x="640" y="2019.5" width="14" height="14" as="geometry" />
        </mxCell>
        <mxCell id="syP1I1rsf_1b_ioC_OM6-118" value="Bearbeiten" style="rounded=1;html=1;shadow=0;dashed=0;whiteSpace=wrap;fontSize=10;fillColor=#666666;align=center;strokeColor=#4D4D4D;fontColor=#ffffff;" vertex="1" parent="1">
          <mxGeometry x="604" y="2215" width="50" height="20" as="geometry" />
        </mxCell>
        <mxCell id="syP1I1rsf_1b_ioC_OM6-119" value="Löschen" style="rounded=1;html=1;shadow=0;dashed=0;whiteSpace=wrap;fontSize=10;fillColor=#666666;align=center;strokeColor=#4D4D4D;fontColor=#ffffff;" vertex="1" parent="1">
          <mxGeometry x="690" y="2215" width="50" height="20" as="geometry" />
        </mxCell>
      </root>
    </mxGraphModel>
  </diagram>
  <diagram id="cH1V8rhY4gFXgoIcKp8_" name="Architektur">
    <mxGraphModel dx="1296" dy="706" grid="1" gridSize="10" guides="1" tooltips="1" connect="1" arrows="1" fold="1" page="1" pageScale="1" pageWidth="827" pageHeight="1169" math="0" shadow="0">
      <root>
        <mxCell id="0" />
        <mxCell id="1" parent="0" />
        <mxCell id="OCl6oUTa9CMEdwlXw0fy-1" value="" style="rounded=0;whiteSpace=wrap;html=1;fillColor=#e6d0de;strokeColor=#996185;gradientColor=#d5739d;" parent="1" vertex="1">
          <mxGeometry x="50" y="40" width="720" height="240" as="geometry" />
        </mxCell>
        <mxCell id="OCl6oUTa9CMEdwlXw0fy-2" value="&lt;h1&gt;Angular Frontend&lt;/h1&gt;" style="text;html=1;align=center;verticalAlign=middle;whiteSpace=wrap;rounded=0;" parent="1" vertex="1">
          <mxGeometry x="50" y="50" width="230" height="30" as="geometry" />
        </mxCell>
        <mxCell id="OCl6oUTa9CMEdwlXw0fy-3" value="Generelle Komponenten: Dialoge, Header, Footer, Kurskarten" style="rounded=0;whiteSpace=wrap;html=1;fillColor=#cce5ff;strokeColor=#36393d;" parent="1" vertex="1">
          <mxGeometry x="130" y="100" width="120" height="150" as="geometry" />
        </mxCell>
        <mxCell id="OCl6oUTa9CMEdwlXw0fy-4" value="VIews" style="rounded=0;whiteSpace=wrap;html=1;fillColor=#eeeeee;strokeColor=#36393d;" parent="1" vertex="1">
          <mxGeometry x="250" y="100" width="260" height="30" as="geometry" />
        </mxCell>
        <mxCell id="kAGXu00YyiYvprNM2jUT-1" value="Authentifizierungsguard &amp;amp; Rollendirektive" style="rounded=0;whiteSpace=wrap;html=1;fillColor=#ffcccc;strokeColor=#36393d;" parent="1" vertex="1">
          <mxGeometry x="250" y="130" width="260" height="30" as="geometry" />
        </mxCell>
        <mxCell id="kAGXu00YyiYvprNM2jUT-2" value="Services" style="rounded=0;whiteSpace=wrap;html=1;fillColor=#eeeeee;strokeColor=#36393d;" parent="1" vertex="1">
          <mxGeometry x="250" y="160" width="260" height="60" as="geometry" />
        </mxCell>
        <mxCell id="GCbxmcjoovOU69AEFKSX-1" value="Models" style="rounded=0;whiteSpace=wrap;html=1;fillColor=#cce5ff;strokeColor=#36393d;" parent="1" vertex="1">
          <mxGeometry x="510" y="100" width="120" height="150" as="geometry" />
        </mxCell>
        <mxCell id="GCbxmcjoovOU69AEFKSX-2" value="HttpTokenInterceptor" style="rounded=0;whiteSpace=wrap;html=1;fillColor=#ffcccc;strokeColor=#36393d;" parent="1" vertex="1">
          <mxGeometry x="250" y="220" width="260" height="30" as="geometry" />
        </mxCell>
        <mxCell id="GCbxmcjoovOU69AEFKSX-3" value="&#xa;&lt;div style=&quot;color: #d4d4d4;background-color: #1e1e1e;font-family: Consolas, &#39;Courier New&#39;, monospace;font-weight: normal;font-size: 14px;line-height: 19px;white-space: pre;&quot;&gt;&lt;div&gt;&lt;span style=&quot;color: #ce9178;&quot;&gt;default-roles-skillhub&lt;/span&gt;&lt;/div&gt;&lt;/div&gt;&#xa;&#xa;" style="rounded=0;whiteSpace=wrap;html=1;fillColor=#d5e8d4;gradientColor=#97d077;strokeColor=#82b366;" parent="1" vertex="1">
          <mxGeometry x="320" y="280" width="450" height="470" as="geometry" />
        </mxCell>
        <mxCell id="GCbxmcjoovOU69AEFKSX-4" value="" style="rounded=0;whiteSpace=wrap;html=1;fillColor=#f5f5f5;gradientColor=#b3b3b3;strokeColor=#666666;" parent="1" vertex="1">
          <mxGeometry x="50" y="280" width="270" height="470" as="geometry" />
        </mxCell>
        <mxCell id="GCbxmcjoovOU69AEFKSX-7" value="&lt;h1&gt;Spring Boot Backend&lt;/h1&gt;" style="text;html=1;align=center;verticalAlign=middle;whiteSpace=wrap;rounded=0;" parent="1" vertex="1">
          <mxGeometry x="320" y="300" width="290" height="30" as="geometry" />
        </mxCell>
        <mxCell id="GCbxmcjoovOU69AEFKSX-8" value="&lt;h1&gt;Keycloak&lt;/h1&gt;" style="text;html=1;align=center;verticalAlign=middle;whiteSpace=wrap;rounded=0;" parent="1" vertex="1">
          <mxGeometry x="60" y="300" width="230" height="30" as="geometry" />
        </mxCell>
        <mxCell id="GCbxmcjoovOU69AEFKSX-11" value="Konfigurationsklasse" style="rounded=0;whiteSpace=wrap;html=1;" parent="1" vertex="1">
          <mxGeometry x="350" y="350" width="380" height="40" as="geometry" />
        </mxCell>
        <mxCell id="GCbxmcjoovOU69AEFKSX-12" value="Resctcontroller" style="rounded=0;whiteSpace=wrap;html=1;" parent="1" vertex="1">
          <mxGeometry x="350" y="390" width="220" height="100" as="geometry" />
        </mxCell>
        <mxCell id="GCbxmcjoovOU69AEFKSX-13" value="Services" style="rounded=0;whiteSpace=wrap;html=1;" parent="1" vertex="1">
          <mxGeometry x="350" y="490" width="220" height="110" as="geometry" />
        </mxCell>
        <mxCell id="GCbxmcjoovOU69AEFKSX-14" value="Repositories&lt;span style=&quot;color: rgba(0, 0, 0, 0); font-family: monospace; font-size: 0px; text-align: start; text-wrap-mode: nowrap;&quot;&gt;%3CmxGraphModel%3E%3Croot%3E%3CmxCell%20id%3D%220%22%2F%3E%3CmxCell%20id%3D%221%22%20parent%3D%220%22%2F%3E%3CmxCell%20id%3D%222%22%20value%3D%22Services%22%20style%3D%22rounded%3D0%3BwhiteSpace%3Dwrap%3Bhtml%3D1%3B%22%20vertex%3D%221%22%20parent%3D%221%22%3E%3CmxGeometry%20x%3D%22350%22%20y%3D%22490%22%20width%3D%22220%22%20height%3D%22110%22%20as%3D%22geometry%22%2F%3E%3C%2FmxCell%3E%3C%2Froot%3E%3C%2FmxGraphModel%3E&lt;/span&gt;" style="rounded=0;whiteSpace=wrap;html=1;" parent="1" vertex="1">
          <mxGeometry x="350" y="600" width="220" height="60" as="geometry" />
        </mxCell>
        <mxCell id="GCbxmcjoovOU69AEFKSX-15" value="Models" style="rounded=0;whiteSpace=wrap;html=1;" parent="1" vertex="1">
          <mxGeometry x="570" y="390" width="160" height="270" as="geometry" />
        </mxCell>
        <mxCell id="GCbxmcjoovOU69AEFKSX-17" value="Clients:&lt;div&gt;&lt;ul&gt;&lt;li&gt;Backend-client&lt;/li&gt;&lt;li&gt;Frontend-client&lt;/li&gt;&lt;/ul&gt;&lt;/div&gt;" style="rounded=0;whiteSpace=wrap;html=1;align=left;" parent="1" vertex="1">
          <mxGeometry x="105" y="380" width="140" height="80" as="geometry" />
        </mxCell>
        <mxCell id="GCbxmcjoovOU69AEFKSX-18" value="Benutzer" style="rounded=0;whiteSpace=wrap;html=1;align=left;" parent="1" vertex="1">
          <mxGeometry x="105" y="460" width="140" height="50" as="geometry" />
        </mxCell>
        <mxCell id="GCbxmcjoovOU69AEFKSX-19" value="Rollen:&lt;div&gt;&lt;ul&gt;&lt;li&gt;Admin&lt;/li&gt;&lt;li&gt;Trainer&lt;/li&gt;&lt;li&gt;Participant&lt;/li&gt;&lt;/ul&gt;&lt;/div&gt;" style="rounded=0;whiteSpace=wrap;html=1;align=left;" parent="1" vertex="1">
          <mxGeometry x="105" y="510" width="140" height="90" as="geometry" />
        </mxCell>
        <mxCell id="VeyH_E-o74YkOtJ_UVwB-3" value="H2 Datenbank" style="rounded=0;whiteSpace=wrap;html=1;" parent="1" vertex="1">
          <mxGeometry x="350" y="660" width="380" height="60" as="geometry" />
        </mxCell>
        <mxCell id="o7S-rCcJvOPNYGqEpHZS-1" value="Identity Provider:&lt;div&gt;&lt;ul&gt;&lt;li&gt;GitHub&lt;/li&gt;&lt;li&gt;Google&lt;/li&gt;&lt;/ul&gt;&lt;/div&gt;" style="rounded=0;whiteSpace=wrap;html=1;align=left;" vertex="1" parent="1">
          <mxGeometry x="105" y="600" width="140" height="90" as="geometry" />
        </mxCell>
      </root>
    </mxGraphModel>
  </diagram>
</mxfile>
